<?xml version="1.0" encoding="UTF-8" standalone="no"?>
<!-- Created with Inkscape (http://www.inkscape.org/) -->

<svg
   xmlns:dc="http://purl.org/dc/elements/1.1/"
   xmlns:cc="http://creativecommons.org/ns#"
   xmlns:rdf="http://www.w3.org/1999/02/22-rdf-syntax-ns#"
   xmlns:svg="http://www.w3.org/2000/svg"
   xmlns="http://www.w3.org/2000/svg"
   xmlns:xlink="http://www.w3.org/1999/xlink"
   xmlns:sodipodi="http://sodipodi.sourceforge.net/DTD/sodipodi-0.dtd"
   xmlns:inkscape="http://www.inkscape.org/namespaces/inkscape"
   width="158.49178mm"
   height="67.73333mm"
   viewBox="0 0 158.49178 67.73333"
   version="1.1"
   id="svg8"
   inkscape:version="0.92.5 (2060ec1f9f, 2020-04-08)"
   sodipodi:docname="localstack-sm-banner.svg">
  <defs
     id="defs2">
    <linearGradient
       inkscape:collect="always"
       id="linearGradient27">
      <stop
         style="stop-color:#12123e;stop-opacity:1"
         offset="0"
         id="stop23" />
      <stop
         style="stop-color:#322966;stop-opacity:1"
         offset="1"
         id="stop25" />
    </linearGradient>
    <linearGradient
       inkscape:collect="always"
       xlink:href="#linearGradient27"
       id="linearGradient29"
       x1="32.874153"
       y1="110.71314"
       x2="160.62898"
       y2="37.080387"
       gradientUnits="userSpaceOnUse"
       gradientTransform="matrix(1.2405934,0,0,0.91821397,-19.671357,3.544529)" />
    <linearGradient
       gradientUnits="userSpaceOnUse"
       y2="74.968002"
       x2="13.9516"
       y1="12.0444"
       x1="77.503502"
       id="paint0_linear_20_3">
      <stop
         id="stop57"
         stop-color="#4D29B4" />
      <stop
         id="stop59"
         stop-color="#836FFF"
         offset="1" />
    </linearGradient>
    <linearGradient
       gradientUnits="userSpaceOnUse"
       y2="-6.5488701"
       x2="93.996399"
       y1="36.657001"
       x1="50.0107"
       id="paint1_linear_20_3">
      <stop
         id="stop62"
         stop-color="#70FFE5" />
      <stop
         id="stop64"
         stop-color="#6295E1"
         offset="1" />
    </linearGradient>
    <linearGradient
       gradientUnits="userSpaceOnUse"
       y2="58.6544"
       x2="32.470501"
       y1="19.3759"
       x1="73.8377"
       id="paint2_linear_20_3">
      <stop
         id="stop67"
         stop-color="#654FEC"
         offset="0.00747511" />
      <stop
         id="stop69"
         stop-color="#71B2FF"
         offset="1" />
    </linearGradient>
  </defs>
  <sodipodi:namedview
     id="base"
     pagecolor="#ffffff"
     bordercolor="#666666"
     borderopacity="1.0"
     inkscape:pageopacity="0.0"
     inkscape:pageshadow="2"
     inkscape:zoom="2.8"
     inkscape:cx="321.15128"
     inkscape:cy="44.638661"
     inkscape:document-units="mm"
     inkscape:current-layer="layer1"
     showgrid="false"
     inkscape:window-width="2560"
     inkscape:window-height="1419"
     inkscape:window-x="2560"
     inkscape:window-y="0"
     inkscape:window-maximized="1"
     fit-margin-top="0"
     fit-margin-left="0"
     fit-margin-right="0"
     fit-margin-bottom="0" />
  <metadata
     id="metadata5">
    <rdf:RDF>
      <cc:Work
         rdf:about="">
        <dc:format>image/svg+xml</dc:format>
        <dc:type
           rdf:resource="http://purl.org/dc/dcmitype/StillImage" />
        <dc:title />
      </cc:Work>
    </rdf:RDF>
  </metadata>
  <g
     inkscape:label="Layer 1"
     inkscape:groupmode="layer"
     id="layer1"
     transform="translate(-25.754112,-35.015446)">
    <rect
       style="fill:url(#linearGradient29);fill-opacity:1;stroke:none;stroke-width:0.28238991"
       id="rect21"
       width="158.49178"
       height="67.73333"
       x="25.754112"
       y="35.015446"
       ry="2.822222" />
    <g
       style="fill:none"
       id="g102"
       transform="matrix(0.2949209,0,0,0.2949209,48.965024,48.612761)">
      <path
         id="path31"
         d="m 115.18,46.5465 h 11.49 V 52.092 H 108.185 V 17.22 h 6.995 z"
         inkscape:connector-curvature="0"
         style="fill:#ffffff" />
      <path
         id="path33"
         d="m 143.406,52.5417 c -2.664,0 -5.063,-0.5829 -7.194,-1.7486 -2.132,-1.1991 -3.814,-2.881 -5.046,-5.046 -1.199,-2.1649 -1.799,-4.6629 -1.799,-7.4939 0,-2.8311 0.617,-5.3291 1.849,-7.494 1.266,-2.165 2.981,-3.8303 5.146,-4.996 2.165,-1.1991 4.579,-1.7986 7.244,-1.7986 2.664,0 5.079,0.5995 7.244,1.7986 2.165,1.1657 3.864,2.831 5.096,4.996 1.266,2.1649 1.898,4.6629 1.898,7.494 0,2.831 -0.649,5.329 -1.948,7.4939 -1.266,2.165 -2.998,3.8469 -5.196,5.046 -2.165,1.1657 -4.596,1.7486 -7.294,1.7486 z m 0,-6.0951 c 1.266,0 2.448,-0.2998 3.547,-0.8993 1.133,-0.6328 2.032,-1.5654 2.698,-2.7978 0.666,-1.2323 0.999,-2.7311 0.999,-4.4963 0,-2.6313 -0.699,-4.6463 -2.098,-6.0452 -1.366,-1.4322 -3.048,-2.1483 -5.046,-2.1483 -1.998,0 -3.68,0.7161 -5.046,2.1483 -1.332,1.3989 -1.998,3.4139 -1.998,6.0452 0,2.6312 0.649,4.6629 1.948,6.0951 1.332,1.3988 2.998,2.0983 4.996,2.0983 z"
         inkscape:connector-curvature="0"
         style="fill:#ffffff" />
      <path
         id="path35"
         d="m 161.177,38.2532 c 0,-2.8644 0.582,-5.3624 1.748,-7.494 1.166,-2.165 2.781,-3.8303 4.846,-4.996 2.065,-1.1991 4.43,-1.7986 7.095,-1.7986 3.43,0 6.261,0.866 8.493,2.5979 2.265,1.6987 3.78,4.0968 4.546,7.1943 h -7.544 c -0.4,-1.1991 -1.082,-2.1317 -2.048,-2.7978 -0.933,-0.6994 -2.099,-1.0491 -3.497,-1.0491 -1.999,0 -3.581,0.7327 -4.747,2.1982 -1.165,1.4322 -1.748,3.4805 -1.748,6.1451 0,2.6312 0.583,4.6795 1.748,6.145 1.166,1.4322 2.748,2.1483 4.747,2.1483 2.831,0 4.679,-1.2657 5.545,-3.797 h 7.544 c -0.766,2.9976 -2.281,5.379 -4.546,7.1443 -2.265,1.7652 -5.096,2.6479 -8.493,2.6479 -2.665,0 -5.03,-0.5829 -7.095,-1.7486 -2.065,-1.1991 -3.68,-2.8644 -4.846,-4.996 -1.166,-2.1649 -1.748,-4.6796 -1.748,-7.5439 z"
         inkscape:connector-curvature="0"
         style="fill:#ffffff" />
      <path
         id="path37"
         d="m 191.231,38.1532 c 0,-2.7977 0.549,-5.2791 1.648,-7.444 1.133,-2.1649 2.648,-3.8302 4.547,-4.996 1.931,-1.1657 4.08,-1.7486 6.444,-1.7486 2.065,0 3.864,0.4164 5.396,1.249 1.565,0.8327 2.814,1.8818 3.747,3.1475 v -3.9468 h 7.044 V 52.092 h -7.044 v -4.0467 c -0.899,1.2989 -2.148,2.3814 -3.747,3.2474 -1.565,0.8326 -3.381,1.249 -5.446,1.249 -2.331,0 -4.463,-0.5995 -6.394,-1.7986 -1.899,-1.199 -3.414,-2.881 -4.547,-5.0459 -1.099,-2.1983 -1.648,-4.7129 -1.648,-7.544 z m 21.782,0.1 c 0,-1.6987 -0.333,-3.1475 -0.999,-4.3466 -0.666,-1.2323 -1.566,-2.1649 -2.698,-2.7977 -1.132,-0.6661 -2.348,-0.9992 -3.647,-0.9992 -1.299,0 -2.498,0.3164 -3.597,0.9492 -1.099,0.6329 -1.999,1.5654 -2.698,2.7978 -0.666,1.199 -0.999,2.6312 -0.999,4.2965 0,1.6654 0.333,3.1308 0.999,4.3965 0.699,1.2323 1.599,2.1816 2.698,2.8477 1.132,0.6661 2.331,0.9992 3.597,0.9992 1.299,0 2.515,-0.3164 3.647,-0.9492 1.132,-0.6662 2.032,-1.5987 2.698,-2.7978 0.666,-1.2323 0.999,-2.6978 0.999,-4.3964 z"
         inkscape:connector-curvature="0"
         style="fill:#ffffff" />
      <path
         id="path39"
         d="M 233.883,15.1217 V 52.092 h -6.994 V 15.1217 Z"
         inkscape:connector-curvature="0"
         style="fill:#ffffff" />
      <path
         id="path41"
         d="m 252.834,52.4417 c -2.432,0 -4.63,-0.4163 -6.595,-1.2489 -1.932,-0.8327 -3.464,-2.0318 -4.596,-3.5972 -1.133,-1.5654 -1.715,-3.4139 -1.749,-5.5455 h 7.494 c 0.1,1.4322 0.6,2.5646 1.499,3.3973 0.933,0.8326 2.198,1.249 3.797,1.249 1.632,0 2.914,-0.3831 3.847,-1.1491 0.932,-0.7994 1.399,-1.8319 1.399,-3.0975 0,-1.0325 -0.317,-1.8818 -0.95,-2.548 -0.632,-0.6661 -1.432,-1.1824 -2.398,-1.5487 -0.932,-0.3997 -2.231,-0.8327 -3.896,-1.299 -2.265,-0.6661 -4.114,-1.3156 -5.546,-1.9484 -1.399,-0.6662 -2.615,-1.6487 -3.647,-2.9477 -0.999,-1.3322 -1.499,-3.0975 -1.499,-5.2957 0,-2.065 0.516,-3.8636 1.549,-5.3957 1.032,-1.5321 2.481,-2.6978 4.346,-3.4972 1.866,-0.8326 3.997,-1.2489 6.395,-1.2489 3.597,0 6.512,0.8826 8.743,2.6478 2.265,1.732 3.514,4.1633 3.747,7.2942 h -7.694 c -0.066,-1.1991 -0.582,-2.1816 -1.548,-2.9477 -0.933,-0.7993 -2.182,-1.199 -3.747,-1.199 -1.366,0 -2.465,0.3497 -3.298,1.0491 -0.799,0.6995 -1.199,1.7153 -1.199,3.0476 0,0.9326 0.3,1.7153 0.9,2.3481 0.632,0.5995 1.398,1.0991 2.298,1.4988 0.932,0.3664 2.231,0.7994 3.897,1.299 2.264,0.6661 4.113,1.3322 5.545,1.9984 1.432,0.6661 2.665,1.6653 3.697,2.9976 1.033,1.3322 1.549,3.0808 1.549,5.2457 0,1.8652 -0.483,3.5971 -1.449,5.1959 -0.966,1.5987 -2.381,2.881 -4.247,3.8469 -1.865,0.9326 -4.08,1.3988 -6.644,1.3988 z"
         inkscape:connector-curvature="0"
         style="fill:#ffffff" />
      <path
         id="path43"
         d="m 279.381,30.1597 v 13.3892 c 0,0.9326 0.217,1.6154 0.65,2.0483 0.466,0.3997 1.232,0.5996 2.298,0.5996 h 3.247 v 5.8952 h -4.396 c -5.895,0 -8.843,-2.8643 -8.843,-8.5931 V 30.1597 h -3.297 v -5.7454 h 3.297 v -6.8445 h 7.044 v 6.8445 h 6.195 v 5.7454 z"
         inkscape:connector-curvature="0"
         style="fill:#ffffff" />
      <path
         id="path45"
         d="m 288.808,38.1532 c 0,-2.7977 0.55,-5.2791 1.649,-7.444 1.133,-2.1649 2.648,-3.8302 4.546,-4.996 1.932,-1.1657 4.08,-1.7486 6.445,-1.7486 2.065,0 3.864,0.4164 5.396,1.249 1.565,0.8327 2.814,1.8818 3.747,3.1475 v -3.9468 h 7.044 V 52.092 h -7.044 v -4.0467 c -0.899,1.2989 -2.148,2.3814 -3.747,3.2474 -1.565,0.8326 -3.381,1.249 -5.446,1.249 -2.331,0 -4.463,-0.5995 -6.395,-1.7986 -1.898,-1.199 -3.413,-2.881 -4.546,-5.0459 -1.099,-2.1983 -1.649,-4.7129 -1.649,-7.544 z m 21.783,0.1 c 0,-1.6987 -0.333,-3.1475 -0.999,-4.3466 -0.666,-1.2323 -1.566,-2.1649 -2.698,-2.7977 -1.133,-0.6661 -2.348,-0.9992 -3.647,-0.9992 -1.299,0 -2.498,0.3164 -3.597,0.9492 -1.099,0.6329 -1.999,1.5654 -2.698,2.7978 -0.666,1.199 -0.999,2.6312 -0.999,4.2965 0,1.6654 0.333,3.1308 0.999,4.3965 0.699,1.2323 1.599,2.1816 2.698,2.8477 1.132,0.6661 2.331,0.9992 3.597,0.9992 1.299,0 2.514,-0.3164 3.647,-0.9492 1.132,-0.6662 2.032,-1.5987 2.698,-2.7978 0.666,-1.2323 0.999,-2.6978 0.999,-4.3964 z"
         inkscape:connector-curvature="0"
         style="fill:#ffffff" />
      <path
         id="path47"
         d="m 322.668,38.2532 c 0,-2.8644 0.583,-5.3624 1.749,-7.494 1.165,-2.165 2.781,-3.8303 4.846,-4.996 2.065,-1.1991 4.429,-1.7986 7.094,-1.7986 3.431,0 6.262,0.866 8.493,2.5979 2.265,1.6987 3.78,4.0968 4.546,7.1943 h -7.543 c -0.4,-1.1991 -1.083,-2.1317 -2.049,-2.7978 -0.932,-0.6994 -2.098,-1.0491 -3.497,-1.0491 -1.998,0 -3.58,0.7327 -4.746,2.1982 -1.166,1.4322 -1.749,3.4805 -1.749,6.1451 0,2.6312 0.583,4.6795 1.749,6.145 1.166,1.4322 2.748,2.1483 4.746,2.1483 2.831,0 4.68,-1.2657 5.546,-3.797 h 7.543 c -0.766,2.9976 -2.281,5.379 -4.546,7.1443 -2.265,1.7652 -5.096,2.6479 -8.493,2.6479 -2.665,0 -5.029,-0.5829 -7.094,-1.7486 -2.065,-1.1991 -3.681,-2.8644 -4.846,-4.996 -1.166,-2.1649 -1.749,-4.6796 -1.749,-7.5439 z"
         inkscape:connector-curvature="0"
         style="fill:#ffffff" />
      <path
         id="path49"
         d="M 370.907,52.092 361.515,40.3015 V 52.092 H 354.52 V 15.1217 h 6.995 v 21.0331 l 9.292,-11.7405 H 379.9 L 367.71,38.3031 380,52.092 Z"
         inkscape:connector-curvature="0"
         style="fill:#ffffff" />
      <path
         id="path51"
         d="m 76.2983,61.8727 c 1.0023,0 1.5042,1.2118 0.7955,1.9205 L 52.7163,88.1688 c -0.7087,0.7087 -1.9206,0.2068 -1.9206,-0.7954 V 62.9977 c 0,-0.6213 0.5037,-1.125 1.1251,-1.125 z M 1.12732,38.9036 c -1.0023,0 -1.504253,-1.2118 -0.795513,-1.9204 L 24.7093,12.6075 c 0.7087,-0.7087 1.9205,-0.2068 1.9205,0.7954 v 24.3757 c 0,0.6213 -0.5037,1.125 -1.125,1.125 z"
         inkscape:connector-curvature="0"
         style="clip-rule:evenodd;fill:url(#paint0_linear_20_3);fill-rule:evenodd" />
      <path
         id="path53"
         d="m 54.1934,34.9029 h 32.6555 c 0.6213,0 1.125,-0.5036 1.125,-1.1249 V 1.12488 c 0,-0.621298 -0.5037,-1.1249601527 -1.125,-1.124960207 L 54.1934,-8.30618e-5 C 53.5721,-8.31162e-5 53.0684,0.503579 53.0684,1.12487 V 33.778 c 0,0.6213 0.5037,1.1249 1.125,1.1249 z"
         inkscape:connector-curvature="0"
         style="fill:url(#paint1_linear_20_3)" />
      <path
         id="path55"
         d="M 78.3818,56.248 H 33.3801 c -0.6213,0 -1.125,-0.5037 -1.125,-1.125 V 10.1246 c 0,-0.62127 0.5037,-1.12493 1.125,-1.12493 h 12.938 c 0.6213,0 1.125,0.50366 1.125,1.12493 v 29.249 c 0,0.6213 0.5037,1.125 1.1251,1.125 h 29.8136 c 0.6213,0 1.125,0.5036 1.125,1.1249 V 55.123 c 0,0.6213 -0.5037,1.125 -1.125,1.125 z"
         inkscape:connector-curvature="0"
         style="fill:url(#paint2_linear_20_3)" />
    </g>
    <g
       aria-label="A fully functional local cloud stack.
Develop and test your cloud and serverless apps offline!"
       style="font-style:normal;font-weight:normal;font-size:4.15396833px;line-height:1.25;font-family:sans-serif;letter-spacing:0px;word-spacing:0px;fill:#e6e6e6;fill-opacity:1;stroke:none;stroke-width:0.1038492"
       id="text106">
      <path
         d="m 71.787021,85.11615 1.0468,-3.057321 h 0.423705 l 1.0468,3.057321 H 73.9637 l -0.307393,-0.872333 h -1.229575 l -0.299086,0.872333 z m 0.72279,-1.171419 h 1.063416 l -0.527554,-1.595124 z"
         style="font-style:normal;font-variant:normal;font-weight:normal;font-stretch:normal;line-height:1.5;font-family:Exo;-inkscape-font-specification:Exo;text-align:center;text-anchor:middle;fill:#e6e6e6;stroke-width:0.1038492"
         id="path46" />
      <path
         d="m 76.003292,85.11615 v -1.948211 h -0.340626 v -0.211853 l 0.340626,-0.05815 v -0.253392 q 0,-0.236776 0.05815,-0.394627 0.05816,-0.162005 0.195237,-0.245084 0.137081,-0.08308 0.382165,-0.08308 0.145389,0 0.245084,0.01662 0.103849,0.01246 0.182774,0.02492 v 0.232622 h -0.369703 q -0.149543,0 -0.228468,0.04985 -0.07892,0.04569 -0.108003,0.145389 -0.02908,0.09554 -0.02908,0.236776 v 0.270008 h 0.689559 v 0.270008 h -0.689559 v 1.948211 z"
         style="font-style:normal;font-variant:normal;font-weight:normal;font-stretch:normal;line-height:1.5;font-family:Exo;-inkscape-font-specification:Exo;text-align:center;text-anchor:middle;fill:#e6e6e6;stroke-width:0.1038492"
         id="path48" />
      <path
         d="m 78.07196,85.141074 q -0.319855,0 -0.494322,-0.166159 -0.170313,-0.166159 -0.170313,-0.515092 v -1.561892 h 0.328164 v 1.478813 q 0,0.278315 0.124619,0.378011 0.128773,0.09554 0.357241,0.09554 0.195237,0 0.357241,-0.054 0.162005,-0.05815 0.332318,-0.15785 v -1.740513 h 0.328163 v 2.218219 h -0.257546 l -0.07062,-0.245084 q -0.170313,0.108003 -0.386319,0.191082 -0.211853,0.07893 -0.448629,0.07893 z"
         style="font-style:normal;font-variant:normal;font-weight:normal;font-stretch:normal;line-height:1.5;font-family:Exo;-inkscape-font-specification:Exo;text-align:center;text-anchor:middle;fill:#e6e6e6;stroke-width:0.1038492"
         id="path50" />
      <path
         d="m 80.435565,85.120304 q -0.191082,0 -0.319855,-0.06646 -0.128773,-0.07062 -0.195237,-0.224314 -0.06646,-0.157851 -0.06646,-0.423705 v -2.459149 h 0.328163 v 2.41761 q 0,0.19939 0.03739,0.303239 0.03739,0.0997 0.108003,0.141235 0.07062,0.03739 0.166159,0.04985 l 0.224314,0.02492 v 0.236776 z"
         style="font-style:normal;font-variant:normal;font-weight:normal;font-stretch:normal;line-height:1.5;font-family:Exo;-inkscape-font-specification:Exo;text-align:center;text-anchor:middle;fill:#e6e6e6;stroke-width:0.1038492"
         id="path52" />
      <path
         d="m 81.656827,85.120304 q -0.191083,0 -0.319856,-0.06646 -0.128773,-0.07062 -0.195236,-0.224314 -0.06646,-0.157851 -0.06646,-0.423705 v -2.459149 h 0.328164 v 2.41761 q 0,0.19939 0.03739,0.303239 0.03739,0.0997 0.108004,0.141235 0.07062,0.03739 0.166158,0.04985 l 0.224315,0.02492 v 0.236776 z"
         style="font-style:normal;font-variant:normal;font-weight:normal;font-stretch:normal;line-height:1.5;font-family:Exo;-inkscape-font-specification:Exo;text-align:center;text-anchor:middle;fill:#e6e6e6;stroke-width:0.1038492"
         id="path54" />
      <path
         d="m 82.89055,86.10064 0.28247,-0.98449 q -0.10385,-0.0042 -0.216007,-0.04985 -0.112157,-0.04569 -0.207698,-0.157851 -0.09554,-0.112157 -0.157851,-0.311547 l -0.531708,-1.698973 h 0.344779 l 0.494323,1.628355 q 0.04569,0.128773 0.09554,0.191083 0.054,0.06231 0.108003,0.08723 0.054,0.02492 0.09139,0.02908 0.04154,0 0.04985,0 l 0.569094,-1.935749 h 0.336471 l -0.810024,2.791467 -0.191082,0.411242 z"
         style="font-style:normal;font-variant:normal;font-weight:normal;font-stretch:normal;line-height:1.5;font-family:Exo;-inkscape-font-specification:Exo;text-align:center;text-anchor:middle;fill:#e6e6e6;stroke-width:0.1038492"
         id="path56" />
      <path
         d="m 85.785854,85.11615 v -1.948211 h -0.340626 v -0.211853 l 0.340626,-0.05815 v -0.253392 q 0,-0.236776 0.05815,-0.394627 0.05816,-0.162005 0.195237,-0.245084 0.137081,-0.08308 0.382165,-0.08308 0.145389,0 0.245084,0.01662 0.103849,0.01246 0.182775,0.02492 v 0.232622 h -0.369703 q -0.149543,0 -0.228469,0.04985 -0.07892,0.04569 -0.108003,0.145389 -0.02908,0.09554 -0.02908,0.236776 v 0.270008 h 0.689559 v 0.270008 h -0.689559 v 1.948211 z"
         style="font-style:normal;font-variant:normal;font-weight:normal;font-stretch:normal;line-height:1.5;font-family:Exo;-inkscape-font-specification:Exo;text-align:center;text-anchor:middle;fill:#e6e6e6;stroke-width:0.1038492"
         id="path58" />
      <path
         d="m 87.854522,85.141074 q -0.319856,0 -0.494322,-0.166159 -0.170313,-0.166159 -0.170313,-0.515092 v -1.561892 h 0.328163 v 1.478813 q 0,0.278315 0.124619,0.378011 0.128774,0.09554 0.357242,0.09554 0.195236,0 0.357241,-0.054 0.162005,-0.05815 0.332318,-0.15785 v -1.740513 h 0.328163 v 2.218219 h -0.257546 l -0.07062,-0.245084 q -0.170313,0.108003 -0.38632,0.191082 -0.211852,0.07893 -0.448628,0.07893 z"
         style="font-style:normal;font-variant:normal;font-weight:normal;font-stretch:normal;line-height:1.5;font-family:Exo;-inkscape-font-specification:Exo;text-align:center;text-anchor:middle;fill:#e6e6e6;stroke-width:0.1038492"
         id="path60" />
      <path
         d="m 89.636571,85.11615 v -2.218219 h 0.257546 l 0.07062,0.245084 q 0.157851,-0.112157 0.369703,-0.195237 0.211853,-0.08723 0.440321,-0.08723 0.245084,0 0.394627,0.103849 0.149543,0.10385 0.22016,0.274162 0.07062,0.170313 0.07062,0.369703 v 1.507891 h -0.328164 v -1.470505 q 0,-0.141235 -0.05815,-0.249238 -0.054,-0.112157 -0.157851,-0.174467 -0.09969,-0.06231 -0.249238,-0.06231 -0.137081,0 -0.257546,0.02908 -0.116311,0.02492 -0.224315,0.07477 -0.103849,0.04569 -0.22016,0.112157 v 1.740513 z"
         style="font-style:normal;font-variant:normal;font-weight:normal;font-stretch:normal;line-height:1.5;font-family:Exo;-inkscape-font-specification:Exo;text-align:center;text-anchor:middle;fill:#e6e6e6;stroke-width:0.1038492"
         id="path62" />
      <path
         d="m 92.884972,85.141074 q -0.186929,0 -0.348933,-0.04985 -0.162005,-0.04985 -0.28247,-0.174467 -0.120465,-0.124619 -0.186929,-0.344779 -0.06646,-0.22016 -0.06646,-0.560786 0,-0.344779 0.06231,-0.564939 0.06231,-0.224315 0.178621,-0.348934 0.116311,-0.124619 0.28247,-0.174466 0.166159,-0.04985 0.369703,-0.04985 0.166159,0 0.361395,0.01662 0.195237,0.01246 0.373857,0.04154 v 0.195236 h -0.648019 q -0.211852,0 -0.357241,0.07062 -0.145389,0.07062 -0.22016,0.265854 -0.07477,0.191082 -0.07477,0.556631 0,0.353088 0.07893,0.540016 0.07892,0.186929 0.224314,0.257546 0.145389,0.06646 0.353087,0.06646 h 0.677097 v 0.191082 q -0.09554,0.01662 -0.224314,0.03323 -0.124619,0.01662 -0.265854,0.02492 -0.141235,0.0083 -0.286624,0.0083 z"
         style="font-style:normal;font-variant:normal;font-weight:normal;font-stretch:normal;line-height:1.5;font-family:Exo;-inkscape-font-specification:Exo;text-align:center;text-anchor:middle;fill:#e6e6e6;stroke-width:0.1038492"
         id="path64" />
      <path
         d="m 94.849799,85.11615 q -0.216007,0 -0.357241,-0.07062 -0.141235,-0.07062 -0.207699,-0.228468 -0.06646,-0.157851 -0.06231,-0.419551 l 0.01246,-1.229574 h -0.353088 v -0.211853 l 0.357241,-0.05815 0.054,-0.618941 h 0.253392 v 0.618941 h 0.639711 v 0.270008 h -0.639711 v 1.229574 q 0,0.145389 0.02908,0.232623 0.03323,0.08723 0.08308,0.132927 0.054,0.04569 0.112157,0.06646 0.05816,0.01662 0.112158,0.02077 l 0.270008,0.02492 v 0.24093 z"
         style="font-style:normal;font-variant:normal;font-weight:normal;font-stretch:normal;line-height:1.5;font-family:Exo;-inkscape-font-specification:Exo;text-align:center;text-anchor:middle;fill:#e6e6e6;stroke-width:0.1038492"
         id="path66" />
      <path
         d="m 95.688894,82.503304 q -0.06646,0 -0.06646,-0.06646 v -0.324009 q 0,-0.06646 0.06646,-0.06646 h 0.232622 q 0.03323,0 0.04569,0.02077 0.01662,0.01662 0.01662,0.04569 v 0.324009 q 0,0.06646 -0.06231,0.06646 z m -0.04985,2.612846 v -2.218219 h 0.328164 v 2.218219 z"
         style="font-style:normal;font-variant:normal;font-weight:normal;font-stretch:normal;line-height:1.5;font-family:Exo;-inkscape-font-specification:Exo;text-align:center;text-anchor:middle;fill:#e6e6e6;stroke-width:0.1038492"
         id="path68" />
      <path
         d="m 97.47925,85.141074 q -0.24093,0 -0.423705,-0.04985 -0.17862,-0.04985 -0.299086,-0.174467 -0.120465,-0.124619 -0.17862,-0.344779 -0.05816,-0.224314 -0.05816,-0.569094 0,-0.348933 0.05816,-0.569093 0.05815,-0.224315 0.17862,-0.34478 0.120466,-0.124619 0.299086,-0.170312 0.182775,-0.04985 0.423705,-0.04985 0.24093,0 0.419551,0.04985 0.182774,0.04985 0.303239,0.174466 0.120465,0.120465 0.178621,0.34478 0.06231,0.22016 0.06231,0.564939 0,0.348934 -0.06231,0.573248 -0.05816,0.22016 -0.178621,0.344779 -0.116311,0.120465 -0.299085,0.170313 -0.182775,0.04985 -0.423705,0.04985 z m 0,-0.270008 q 0.153697,0 0.270008,-0.02908 0.120465,-0.02908 0.19939,-0.116311 0.07893,-0.08723 0.120465,-0.2617 0.04154,-0.174467 0.04154,-0.461091 0,-0.290777 -0.04154,-0.46109 -0.04154,-0.170313 -0.120465,-0.257546 -0.07893,-0.08723 -0.19939,-0.116311 -0.116311,-0.02908 -0.270008,-0.02908 -0.157851,0 -0.274162,0.02908 -0.116311,0.02908 -0.195237,0.116311 -0.07892,0.08723 -0.120465,0.257546 -0.04154,0.170313 -0.04154,0.46109 0,0.286624 0.04154,0.461091 0.04154,0.174467 0.120465,0.2617 0.07893,0.08723 0.195237,0.116311 0.116311,0.02908 0.274162,0.02908 z"
         style="font-style:normal;font-variant:normal;font-weight:normal;font-stretch:normal;line-height:1.5;font-family:Exo;-inkscape-font-specification:Exo;text-align:center;text-anchor:middle;fill:#e6e6e6;stroke-width:0.1038492"
         id="path70" />
      <path
         d="m 98.995448,85.11615 v -2.218219 h 0.257546 l 0.07062,0.245084 q 0.157851,-0.112157 0.369703,-0.195237 0.211853,-0.08723 0.440326,-0.08723 0.24508,0 0.39462,0.103849 0.14954,0.10385 0.22016,0.274162 0.0706,0.170313 0.0706,0.369703 v 1.507891 h -0.32816 v -1.470505 q 0,-0.141235 -0.0582,-0.249238 -0.054,-0.112157 -0.15785,-0.174467 -0.0997,-0.06231 -0.24924,-0.06231 -0.137079,0 -0.257544,0.02908 -0.116311,0.02492 -0.224314,0.07477 -0.10385,0.04569 -0.220161,0.112157 v 1.740513 z"
         style="font-style:normal;font-variant:normal;font-weight:normal;font-stretch:normal;line-height:1.5;font-family:Exo;-inkscape-font-specification:Exo;text-align:center;text-anchor:middle;fill:#e6e6e6;stroke-width:0.1038492"
         id="path72" />
      <path
         d="m 101.86999,85.141074 q -0.24508,0 -0.40293,-0.145389 -0.15786,-0.145389 -0.15786,-0.411243 v -0.157851 q 0,-0.2617 0.17032,-0.423705 0.17446,-0.162004 0.5234,-0.162004 h 0.75187 V 83.56672 q 0,-0.137081 -0.0499,-0.232623 -0.0457,-0.09969 -0.17031,-0.153696 -0.12047,-0.054 -0.35309,-0.054 h -0.68956 v -0.195236 q 0.14539,-0.02492 0.33647,-0.04569 0.19524,-0.02077 0.45694,-0.02077 0.27,-0.0042 0.44863,0.06646 0.17862,0.07062 0.2617,0.224314 0.0872,0.149543 0.0872,0.394627 v 1.566046 h -0.25339 l -0.0623,-0.253392 q -0.0166,0.01662 -0.10385,0.05815 -0.0831,0.04154 -0.21601,0.09554 -0.12877,0.04985 -0.28247,0.08723 -0.14954,0.03739 -0.29493,0.03739 z m 0.13708,-0.245084 q 0.0748,0.0042 0.17031,-0.01662 0.0956,-0.02077 0.19524,-0.04569 0.0997,-0.02908 0.18277,-0.05816 0.0872,-0.02908 0.14124,-0.04985 0.054,-0.02077 0.0582,-0.02077 V 84.00704 l -0.6771,0.02908 q -0.23678,0.0083 -0.34063,0.116311 -0.0997,0.108003 -0.0997,0.278316 v 0.09969 q 0,0.132927 0.054,0.216007 0.0582,0.07892 0.14123,0.112157 0.0872,0.03323 0.17447,0.03739 z"
         style="font-style:normal;font-variant:normal;font-weight:normal;font-stretch:normal;line-height:1.5;font-family:Exo;-inkscape-font-specification:Exo;text-align:center;text-anchor:middle;fill:#e6e6e6;stroke-width:0.1038492"
         id="path74" />
      <path
         d="m 104.28344,85.120304 q -0.19108,0 -0.31986,-0.06646 -0.12877,-0.07062 -0.19523,-0.224314 -0.0665,-0.157851 -0.0665,-0.423705 v -2.459149 h 0.32817 v 2.41761 q 0,0.19939 0.0374,0.303239 0.0374,0.0997 0.10801,0.141235 0.0706,0.03739 0.16616,0.04985 l 0.22431,0.02492 v 0.236776 z"
         style="font-style:normal;font-variant:normal;font-weight:normal;font-stretch:normal;line-height:1.5;font-family:Exo;-inkscape-font-specification:Exo;text-align:center;text-anchor:middle;fill:#e6e6e6;stroke-width:0.1038492"
         id="path76" />
      <path
         d="m 106.62626,85.120304 q -0.19108,0 -0.31985,-0.06646 -0.12877,-0.07062 -0.19524,-0.224314 -0.0665,-0.157851 -0.0665,-0.423705 v -2.459149 h 0.32816 v 2.41761 q 0,0.19939 0.0374,0.303239 0.0374,0.0997 0.108,0.141235 0.0706,0.03739 0.16616,0.04985 l 0.22431,0.02492 v 0.236776 z"
         style="font-style:normal;font-variant:normal;font-weight:normal;font-stretch:normal;line-height:1.5;font-family:Exo;-inkscape-font-specification:Exo;text-align:center;text-anchor:middle;fill:#e6e6e6;stroke-width:0.1038492"
         id="path78" />
      <path
         d="m 108.14661,85.141074 q -0.24093,0 -0.4237,-0.04985 -0.17862,-0.04985 -0.29909,-0.174467 -0.12046,-0.124619 -0.17862,-0.344779 -0.0581,-0.224314 -0.0581,-0.569094 0,-0.348933 0.0581,-0.569093 0.0582,-0.224315 0.17862,-0.34478 0.12047,-0.124619 0.29909,-0.170312 0.18277,-0.04985 0.4237,-0.04985 0.24093,0 0.41955,0.04985 0.18278,0.04985 0.30324,0.174466 0.12047,0.120465 0.17863,0.34478 0.0623,0.22016 0.0623,0.564939 0,0.348934 -0.0623,0.573248 -0.0582,0.22016 -0.17863,0.344779 -0.11631,0.120465 -0.29908,0.170313 -0.18278,0.04985 -0.42371,0.04985 z m 0,-0.270008 q 0.1537,0 0.27001,-0.02908 0.12047,-0.02908 0.19939,-0.116311 0.0789,-0.08723 0.12047,-0.2617 0.0415,-0.174467 0.0415,-0.461091 0,-0.290777 -0.0415,-0.46109 -0.0415,-0.170313 -0.12047,-0.257546 -0.0789,-0.08723 -0.19939,-0.116311 -0.11631,-0.02908 -0.27001,-0.02908 -0.15785,0 -0.27416,0.02908 -0.11631,0.02908 -0.19523,0.116311 -0.0789,0.08723 -0.12047,0.257546 -0.0415,0.170313 -0.0415,0.46109 0,0.286624 0.0415,0.461091 0.0415,0.174467 0.12047,0.2617 0.0789,0.08723 0.19523,0.116311 0.11631,0.02908 0.27416,0.02908 z"
         style="font-style:normal;font-variant:normal;font-weight:normal;font-stretch:normal;line-height:1.5;font-family:Exo;-inkscape-font-specification:Exo;text-align:center;text-anchor:middle;fill:#e6e6e6;stroke-width:0.1038492"
         id="path80" />
      <path
         d="m 110.46868,85.141074 q -0.18693,0 -0.34894,-0.04985 -0.162,-0.04985 -0.28247,-0.174467 -0.12046,-0.124619 -0.18692,-0.344779 -0.0665,-0.22016 -0.0665,-0.560786 0,-0.344779 0.0623,-0.564939 0.0623,-0.224315 0.17862,-0.348934 0.11631,-0.124619 0.28247,-0.174466 0.16616,-0.04985 0.36971,-0.04985 0.16615,0 0.36139,0.01662 0.19524,0.01246 0.37386,0.04154 v 0.195236 h -0.64802 q -0.21185,0 -0.35724,0.07062 -0.14539,0.07062 -0.22016,0.265854 -0.0748,0.191082 -0.0748,0.556631 0,0.353088 0.0789,0.540016 0.0789,0.186929 0.22432,0.257546 0.14538,0.06646 0.35308,0.06646 h 0.6771 v 0.191082 q -0.0955,0.01662 -0.22431,0.03323 -0.12462,0.01662 -0.26586,0.02492 -0.14123,0.0083 -0.28662,0.0083 z"
         style="font-style:normal;font-variant:normal;font-weight:normal;font-stretch:normal;line-height:1.5;font-family:Exo;-inkscape-font-specification:Exo;text-align:center;text-anchor:middle;fill:#e6e6e6;stroke-width:0.1038492"
         id="path82" />
      <path
         d="m 112.13027,85.141074 q -0.24509,0 -0.40294,-0.145389 -0.15785,-0.145389 -0.15785,-0.411243 v -0.157851 q 0,-0.2617 0.17031,-0.423705 0.17447,-0.162004 0.5234,-0.162004 h 0.75187 V 83.56672 q 0,-0.137081 -0.0499,-0.232623 -0.0457,-0.09969 -0.17031,-0.153696 -0.12046,-0.054 -0.35309,-0.054 h -0.68955 v -0.195236 q 0.14538,-0.02492 0.33647,-0.04569 0.19523,-0.02077 0.45693,-0.02077 0.27001,-0.0042 0.44863,0.06646 0.17862,0.07062 0.2617,0.224314 0.0872,0.149543 0.0872,0.394627 v 1.566046 h -0.2534 l -0.0623,-0.253392 q -0.0166,0.01662 -0.10385,0.05815 -0.0831,0.04154 -0.216,0.09554 -0.12877,0.04985 -0.28247,0.08723 -0.14954,0.03739 -0.29493,0.03739 z m 0.13708,-0.245084 q 0.0748,0.0042 0.17031,-0.01662 0.0955,-0.02077 0.19524,-0.04569 0.0997,-0.02908 0.18277,-0.05816 0.0872,-0.02908 0.14124,-0.04985 0.054,-0.02077 0.0582,-0.02077 V 84.00704 l -0.67709,0.02908 q -0.23678,0.0083 -0.34063,0.116311 -0.0997,0.108003 -0.0997,0.278316 v 0.09969 q 0,0.132927 0.054,0.216007 0.0581,0.07892 0.14123,0.112157 0.0872,0.03323 0.17447,0.03739 z"
         style="font-style:normal;font-variant:normal;font-weight:normal;font-stretch:normal;line-height:1.5;font-family:Exo;-inkscape-font-specification:Exo;text-align:center;text-anchor:middle;fill:#e6e6e6;stroke-width:0.1038492"
         id="path84" />
      <path
         d="m 114.54371,85.120304 q -0.19108,0 -0.31985,-0.06646 -0.12877,-0.07062 -0.19524,-0.224314 -0.0665,-0.157851 -0.0665,-0.423705 v -2.459149 h 0.32816 v 2.41761 q 0,0.19939 0.0374,0.303239 0.0374,0.0997 0.108,0.141235 0.0706,0.03739 0.16616,0.04985 l 0.22431,0.02492 v 0.236776 z"
         style="font-style:normal;font-variant:normal;font-weight:normal;font-stretch:normal;line-height:1.5;font-family:Exo;-inkscape-font-specification:Exo;text-align:center;text-anchor:middle;fill:#e6e6e6;stroke-width:0.1038492"
         id="path86" />
      <path
         d="m 117.11086,85.141074 q -0.18693,0 -0.34894,-0.04985 -0.162,-0.04985 -0.28247,-0.174467 -0.12046,-0.124619 -0.18693,-0.344779 -0.0665,-0.22016 -0.0665,-0.560786 0,-0.344779 0.0623,-0.564939 0.0623,-0.224315 0.17862,-0.348934 0.11631,-0.124619 0.28247,-0.174466 0.16616,-0.04985 0.3697,-0.04985 0.16616,0 0.3614,0.01662 0.19524,0.01246 0.37386,0.04154 v 0.195236 h -0.64802 q -0.21186,0 -0.35724,0.07062 -0.14539,0.07062 -0.22016,0.265854 -0.0748,0.191082 -0.0748,0.556631 0,0.353088 0.0789,0.540016 0.0789,0.186929 0.22431,0.257546 0.14539,0.06646 0.35309,0.06646 h 0.6771 v 0.191082 q -0.0955,0.01662 -0.22432,0.03323 -0.12462,0.01662 -0.26585,0.02492 -0.14124,0.0083 -0.28662,0.0083 z"
         style="font-style:normal;font-variant:normal;font-weight:normal;font-stretch:normal;line-height:1.5;font-family:Exo;-inkscape-font-specification:Exo;text-align:center;text-anchor:middle;fill:#e6e6e6;stroke-width:0.1038492"
         id="path88" />
      <path
         d="m 118.92198,85.120304 q -0.19108,0 -0.31985,-0.06646 -0.12877,-0.07062 -0.19524,-0.224314 -0.0665,-0.157851 -0.0665,-0.423705 v -2.459149 h 0.32816 v 2.41761 q 0,0.19939 0.0374,0.303239 0.0374,0.0997 0.108,0.141235 0.0706,0.03739 0.16616,0.04985 l 0.22431,0.02492 v 0.236776 z"
         style="font-style:normal;font-variant:normal;font-weight:normal;font-stretch:normal;line-height:1.5;font-family:Exo;-inkscape-font-specification:Exo;text-align:center;text-anchor:middle;fill:#e6e6e6;stroke-width:0.1038492"
         id="path90" />
      <path
         d="m 120.44233,85.141074 q -0.24093,0 -0.4237,-0.04985 -0.17862,-0.04985 -0.29909,-0.174467 -0.12046,-0.124619 -0.17862,-0.344779 -0.0581,-0.224314 -0.0581,-0.569094 0,-0.348933 0.0581,-0.569093 0.0582,-0.224315 0.17862,-0.34478 0.12047,-0.124619 0.29909,-0.170312 0.18277,-0.04985 0.4237,-0.04985 0.24093,0 0.41955,0.04985 0.18278,0.04985 0.30324,0.174466 0.12047,0.120465 0.17862,0.34478 0.0623,0.22016 0.0623,0.564939 0,0.348934 -0.0623,0.573248 -0.0581,0.22016 -0.17862,0.344779 -0.11631,0.120465 -0.29908,0.170313 -0.18278,0.04985 -0.42371,0.04985 z m 0,-0.270008 q 0.1537,0 0.27001,-0.02908 0.12047,-0.02908 0.19939,-0.116311 0.0789,-0.08723 0.12047,-0.2617 0.0415,-0.174467 0.0415,-0.461091 0,-0.290777 -0.0415,-0.46109 -0.0415,-0.170313 -0.12047,-0.257546 -0.0789,-0.08723 -0.19939,-0.116311 -0.11631,-0.02908 -0.27001,-0.02908 -0.15785,0 -0.27416,0.02908 -0.11631,0.02908 -0.19524,0.116311 -0.0789,0.08723 -0.12046,0.257546 -0.0415,0.170313 -0.0415,0.46109 0,0.286624 0.0415,0.461091 0.0415,0.174467 0.12046,0.2617 0.0789,0.08723 0.19524,0.116311 0.11631,0.02908 0.27416,0.02908 z"
         style="font-style:normal;font-variant:normal;font-weight:normal;font-stretch:normal;line-height:1.5;font-family:Exo;-inkscape-font-specification:Exo;text-align:center;text-anchor:middle;fill:#e6e6e6;stroke-width:0.1038492"
         id="path92" />
      <path
         d="m 122.61901,85.141074 q -0.31986,0 -0.49432,-0.166159 -0.17032,-0.166159 -0.17032,-0.515092 v -1.561892 h 0.32817 v 1.478813 q 0,0.278315 0.12462,0.378011 0.12877,0.09554 0.35724,0.09554 0.19523,0 0.35724,-0.054 0.162,-0.05815 0.33232,-0.15785 v -1.740513 h 0.32816 v 2.218219 h -0.25755 l -0.0706,-0.245084 q -0.17032,0.108003 -0.38632,0.191082 -0.21186,0.07893 -0.44863,0.07893 z"
         style="font-style:normal;font-variant:normal;font-weight:normal;font-stretch:normal;line-height:1.5;font-family:Exo;-inkscape-font-specification:Exo;text-align:center;text-anchor:middle;fill:#e6e6e6;stroke-width:0.1038492"
         id="path94" />
      <path
         d="m 125.1197,85.141074 q -0.27417,0 -0.45279,-0.116311 -0.17446,-0.120465 -0.2617,-0.36555 -0.0831,-0.249238 -0.0831,-0.635557 0,-0.411243 0.0831,-0.664635 0.0831,-0.257546 0.26586,-0.373857 0.18277,-0.116311 0.49017,-0.116311 0.18692,0 0.36554,0.04154 0.17862,0.04154 0.31571,0.09139 v -1.055108 h 0.32816 v 3.169478 h -0.26585 l -0.0623,-0.224314 q -0.0623,0.054 -0.18693,0.112157 -0.12047,0.05815 -0.26586,0.0997 -0.14123,0.03739 -0.27,0.03739 z m 0.0955,-0.270008 q 0.19108,0 0.34478,-0.05816 0.15785,-0.06231 0.28247,-0.128773 v -1.449735 q -0.14955,-0.04569 -0.28663,-0.07477 -0.13708,-0.03323 -0.30739,-0.03323 -0.21185,0 -0.34478,0.07892 -0.13293,0.07893 -0.19524,0.274162 -0.0581,0.191083 -0.0581,0.531708 0,0.307394 0.054,0.498477 0.0581,0.191082 0.18277,0.278315 0.12462,0.08308 0.32817,0.08308 z"
         style="font-style:normal;font-variant:normal;font-weight:normal;font-stretch:normal;line-height:1.5;font-family:Exo;-inkscape-font-specification:Exo;text-align:center;text-anchor:middle;fill:#e6e6e6;stroke-width:0.1038492"
         id="path96" />
      <path
         d="m 128.67548,85.141074 q -0.0831,0 -0.20354,-0.0042 -0.12047,-0.0042 -0.25339,-0.01246 -0.12878,-0.0083 -0.23678,-0.01662 -0.10385,-0.01246 -0.162,-0.02492 v -0.19939 h 0.90971 q 0.13709,0 0.23678,-0.02077 0.0997,-0.02077 0.1537,-0.09139 0.0582,-0.07062 0.0582,-0.211853 v -0.09969 q 0,-0.145389 -0.0955,-0.224314 -0.0955,-0.08308 -0.30739,-0.08308 h -0.31155 q -0.19524,0 -0.34893,-0.04985 -0.14955,-0.04985 -0.23263,-0.170313 -0.0831,-0.120465 -0.0831,-0.332318 V 83.48364 q 0,-0.207698 0.0789,-0.340625 0.0831,-0.132927 0.25339,-0.199391 0.17447,-0.06646 0.44863,-0.06646 0.11631,0 0.26586,0.0083 0.15369,0.0083 0.29908,0.02492 0.14539,0.01246 0.23678,0.02908 v 0.199391 h -0.85572 q -0.21185,0 -0.32816,0.07062 -0.11216,0.07062 -0.11216,0.274162 v 0.09139 q 0,0.128773 0.054,0.195236 0.054,0.06231 0.14954,0.08308 0.0997,0.02077 0.22847,0.02077 h 0.3157 q 0.30324,0 0.4694,0.141235 0.16616,0.141235 0.16616,0.407089 v 0.153697 q 0,0.224314 -0.10385,0.348933 -0.0997,0.120465 -0.27831,0.170313 -0.17447,0.04569 -0.41125,0.04569 z"
         style="font-style:normal;font-variant:normal;font-weight:normal;font-stretch:normal;line-height:1.5;font-family:Exo;-inkscape-font-specification:Exo;text-align:center;text-anchor:middle;fill:#e6e6e6;stroke-width:0.1038492"
         id="path98" />
      <path
         d="m 130.72338,85.11615 q -0.216,0 -0.35724,-0.07062 -0.14123,-0.07062 -0.2077,-0.228468 -0.0665,-0.157851 -0.0623,-0.419551 l 0.0125,-1.229574 h -0.35308 v -0.211853 l 0.35724,-0.05815 0.054,-0.618941 h 0.25339 v 0.618941 h 0.63971 v 0.270008 h -0.63971 v 1.229574 q 0,0.145389 0.0291,0.232623 0.0332,0.08723 0.0831,0.132927 0.054,0.04569 0.11216,0.06646 0.0581,0.01662 0.11215,0.02077 l 0.27001,0.02492 v 0.24093 z"
         style="font-style:normal;font-variant:normal;font-weight:normal;font-stretch:normal;line-height:1.5;font-family:Exo;-inkscape-font-specification:Exo;text-align:center;text-anchor:middle;fill:#e6e6e6;stroke-width:0.1038492"
         id="path100" />
      <path
         d="m 131.94464,85.141074 q -0.24508,0 -0.40293,-0.145389 -0.15786,-0.145389 -0.15786,-0.411243 v -0.157851 q 0,-0.2617 0.17032,-0.423705 0.17446,-0.162004 0.5234,-0.162004 h 0.75187 V 83.56672 q 0,-0.137081 -0.0498,-0.232623 -0.0457,-0.09969 -0.17032,-0.153696 -0.12046,-0.054 -0.35308,-0.054 h -0.68956 v -0.195236 q 0.14539,-0.02492 0.33647,-0.04569 0.19524,-0.02077 0.45694,-0.02077 0.27,-0.0042 0.44863,0.06646 0.17862,0.07062 0.2617,0.224314 0.0872,0.149543 0.0872,0.394627 v 1.566046 h -0.25339 l -0.0623,-0.253392 q -0.0166,0.01662 -0.10385,0.05815 -0.0831,0.04154 -0.21601,0.09554 -0.12877,0.04985 -0.28247,0.08723 -0.14954,0.03739 -0.29493,0.03739 z m 0.13708,-0.245084 q 0.0748,0.0042 0.17031,-0.01662 0.0955,-0.02077 0.19524,-0.04569 0.0997,-0.02908 0.18277,-0.05816 0.0872,-0.02908 0.14124,-0.04985 0.054,-0.02077 0.0582,-0.02077 V 84.00704 l -0.6771,0.02908 q -0.23678,0.0083 -0.34063,0.116311 -0.0997,0.108003 -0.0997,0.278316 v 0.09969 q 0,0.132927 0.054,0.216007 0.0582,0.07892 0.14123,0.112157 0.0872,0.03323 0.17447,0.03739 z"
         style="font-style:normal;font-variant:normal;font-weight:normal;font-stretch:normal;line-height:1.5;font-family:Exo;-inkscape-font-specification:Exo;text-align:center;text-anchor:middle;fill:#e6e6e6;stroke-width:0.1038492"
         id="path102" />
      <path
         d="m 134.58241,85.141074 q -0.18693,0 -0.34894,-0.04985 -0.162,-0.04985 -0.28247,-0.174467 -0.12046,-0.124619 -0.18693,-0.344779 -0.0665,-0.22016 -0.0665,-0.560786 0,-0.344779 0.0623,-0.564939 0.0623,-0.224315 0.17862,-0.348934 0.11631,-0.124619 0.28247,-0.174466 0.16616,-0.04985 0.3697,-0.04985 0.16616,0 0.3614,0.01662 0.19524,0.01246 0.37386,0.04154 v 0.195236 h -0.64802 q -0.21186,0 -0.35724,0.07062 -0.14539,0.07062 -0.22016,0.265854 -0.0748,0.191082 -0.0748,0.556631 0,0.353088 0.0789,0.540016 0.0789,0.186929 0.22431,0.257546 0.14539,0.06646 0.35309,0.06646 h 0.6771 v 0.191082 q -0.0955,0.01662 -0.22432,0.03323 -0.12462,0.01662 -0.26585,0.02492 -0.14124,0.0083 -0.28662,0.0083 z"
         style="font-style:normal;font-variant:normal;font-weight:normal;font-stretch:normal;line-height:1.5;font-family:Exo;-inkscape-font-specification:Exo;text-align:center;text-anchor:middle;fill:#e6e6e6;stroke-width:0.1038492"
         id="path104" />
      <path
         d="m 135.81198,85.11615 v -3.169478 h 0.32816 v 1.836054 h 0.3157 l 0.6771,-0.884795 h 0.34893 l -0.78094,1.034338 0.83079,1.183881 h -0.34893 l -0.73941,-1.038492 h -0.30324 v 1.038492 z"
         style="font-style:normal;font-variant:normal;font-weight:normal;font-stretch:normal;line-height:1.5;font-family:Exo;-inkscape-font-specification:Exo;text-align:center;text-anchor:middle;fill:#e6e6e6;stroke-width:0.1038492"
         id="path106" />
      <path
         d="m 137.92219,85.120304 q -0.0665,0 -0.0665,-0.06646 v -0.332317 q 0,-0.06646 0.0665,-0.06646 h 0.18277 q 0.0665,0 0.0665,0.06646 v 0.332317 q 0,0.03323 -0.0208,0.04985 -0.0166,0.01662 -0.0457,0.01662 z"
         style="font-style:normal;font-variant:normal;font-weight:normal;font-stretch:normal;line-height:1.5;font-family:Exo;-inkscape-font-specification:Exo;text-align:center;text-anchor:middle;fill:#e6e6e6;stroke-width:0.1038492"
         id="path108" />
      <path
         d="m 51.542711,91.347102 v -3.05732 h 1.208805 q 0.278316,0 0.469398,0.103849 0.191083,0.09969 0.307394,0.294932 0.120465,0.195236 0.174467,0.48186 0.054,0.28247 0.054,0.648019 0,0.48186 -0.112157,0.822486 -0.112157,0.340625 -0.336471,0.5234 -0.224315,0.182774 -0.556632,0.182774 z m 0.332318,-0.294931 h 0.851563 q 0.245084,0 0.398781,-0.149543 0.153697,-0.153697 0.228468,-0.427859 0.07477,-0.278316 0.07477,-0.656327 0,-0.340625 -0.04154,-0.573248 -0.04154,-0.236776 -0.128773,-0.382165 -0.08308,-0.145389 -0.216006,-0.207698 -0.132927,-0.06646 -0.315702,-0.06646 h -0.851563 z"
         style="font-style:normal;font-variant:normal;font-weight:normal;font-stretch:normal;line-height:1.5;font-family:Exo;-inkscape-font-specification:Exo;text-align:center;text-anchor:middle;fill:#e6e6e6;stroke-width:0.1038492"
         id="path110" />
      <path
         d="m 55.123426,91.372026 q -0.348934,0 -0.552478,-0.103849 -0.199391,-0.103849 -0.286624,-0.353087 -0.08723,-0.249238 -0.08723,-0.681251 0,-0.440321 0.08723,-0.685405 0.09139,-0.249238 0.294932,-0.348933 0.203544,-0.09969 0.548324,-0.09969 0.294931,0 0.477706,0.06646 0.186929,0.06646 0.274162,0.228468 0.09139,0.157851 0.09139,0.440321 0,0.195236 -0.07892,0.315702 -0.07477,0.116311 -0.22016,0.170312 -0.141235,0.04985 -0.336472,0.04985 h -0.810024 q 0.0042,0.270008 0.05816,0.436167 0.054,0.162004 0.195236,0.236776 0.145389,0.07062 0.423705,0.07062 h 0.714483 v 0.199391 q -0.191083,0.02492 -0.373858,0.04154 -0.182774,0.01662 -0.41955,0.01662 z M 54.5211,90.154913 h 0.789254 q 0.186929,0 0.274162,-0.06646 0.09139,-0.07062 0.09139,-0.249238 0,-0.191083 -0.05815,-0.294932 -0.054,-0.108003 -0.174467,-0.149543 -0.116311,-0.04569 -0.315701,-0.04569 -0.232623,0 -0.36555,0.07062 -0.132927,0.06646 -0.186928,0.24093 -0.054,0.174467 -0.054,0.494322 z"
         style="font-style:normal;font-variant:normal;font-weight:normal;font-stretch:normal;line-height:1.5;font-family:Exo;-inkscape-font-specification:Exo;text-align:center;text-anchor:middle;fill:#e6e6e6;stroke-width:0.1038492"
         id="path112" />
      <path
         d="M 57.079937,91.347102 56.24499,89.128883 h 0.336471 l 0.689559,1.910826 0.710328,-1.910826 h 0.332318 l -0.859872,2.218219 z"
         style="font-style:normal;font-variant:normal;font-weight:normal;font-stretch:normal;line-height:1.5;font-family:Exo;-inkscape-font-specification:Exo;text-align:center;text-anchor:middle;fill:#e6e6e6;stroke-width:0.1038492"
         id="path114" />
      <path
         d="m 59.472619,91.372026 q -0.348934,0 -0.552478,-0.103849 -0.199391,-0.103849 -0.286624,-0.353087 -0.08723,-0.249238 -0.08723,-0.681251 0,-0.440321 0.08723,-0.685405 0.09139,-0.249238 0.294932,-0.348933 0.203544,-0.09969 0.548324,-0.09969 0.294931,0 0.477706,0.06646 0.186928,0.06646 0.274162,0.228468 0.09139,0.157851 0.09139,0.440321 0,0.195236 -0.07892,0.315702 -0.07477,0.116311 -0.220161,0.170312 -0.141235,0.04985 -0.336471,0.04985 h -0.810024 q 0.0042,0.270008 0.05816,0.436167 0.054,0.162004 0.195236,0.236776 0.145389,0.07062 0.423705,0.07062 h 0.714482 v 0.199391 q -0.191082,0.02492 -0.373857,0.04154 -0.182774,0.01662 -0.41955,0.01662 z m -0.602326,-1.217113 h 0.789254 q 0.186929,0 0.274162,-0.06646 0.09139,-0.07062 0.09139,-0.249238 0,-0.191083 -0.05815,-0.294932 -0.054,-0.108003 -0.174467,-0.149543 -0.116311,-0.04569 -0.315701,-0.04569 -0.232623,0 -0.36555,0.07062 -0.132927,0.06646 -0.186928,0.24093 -0.054,0.174467 -0.054,0.494322 z"
         style="font-style:normal;font-variant:normal;font-weight:normal;font-stretch:normal;line-height:1.5;font-family:Exo;-inkscape-font-specification:Exo;text-align:center;text-anchor:middle;fill:#e6e6e6;stroke-width:0.1038492"
         id="path116" />
      <path
         d="m 61.454055,91.351256 q -0.191082,0 -0.319855,-0.06646 -0.128773,-0.07062 -0.195237,-0.224314 -0.06646,-0.157851 -0.06646,-0.423705 v -2.459149 h 0.328163 v 2.417609 q 0,0.199391 0.03739,0.30324 0.03739,0.0997 0.108003,0.141235 0.07062,0.03739 0.166159,0.04985 l 0.224314,0.02492 v 0.236776 z"
         style="font-style:normal;font-variant:normal;font-weight:normal;font-stretch:normal;line-height:1.5;font-family:Exo;-inkscape-font-specification:Exo;text-align:center;text-anchor:middle;fill:#e6e6e6;stroke-width:0.1038492"
         id="path118" />
      <path
         d="m 62.974402,91.372026 q -0.24093,0 -0.423705,-0.04985 -0.17862,-0.04985 -0.299086,-0.174467 -0.120465,-0.124619 -0.17862,-0.344779 -0.05816,-0.224315 -0.05816,-0.569094 0,-0.348933 0.05816,-0.569094 0.05815,-0.224314 0.17862,-0.344779 0.120466,-0.124619 0.299086,-0.170313 0.182775,-0.04985 0.423705,-0.04985 0.24093,0 0.419551,0.04985 0.182774,0.04985 0.303239,0.174467 0.120465,0.120465 0.178621,0.344779 0.06231,0.220161 0.06231,0.56494 0,0.348933 -0.06231,0.573248 -0.05816,0.22016 -0.178621,0.344779 -0.116311,0.120465 -0.299085,0.170313 -0.182775,0.04985 -0.423705,0.04985 z m 0,-0.270008 q 0.153697,0 0.270008,-0.02908 0.120465,-0.02908 0.19939,-0.116311 0.07893,-0.08723 0.120465,-0.2617 0.04154,-0.174466 0.04154,-0.46109 0,-0.290778 -0.04154,-0.461091 -0.04154,-0.170312 -0.120465,-0.257546 -0.07893,-0.08723 -0.19939,-0.116311 -0.116311,-0.02908 -0.270008,-0.02908 -0.157851,0 -0.274162,0.02908 -0.116311,0.02908 -0.195236,0.116311 -0.07893,0.08723 -0.120466,0.257546 -0.04154,0.170313 -0.04154,0.461091 0,0.286624 0.04154,0.46109 0.04154,0.174467 0.120466,0.2617 0.07892,0.08723 0.195236,0.116311 0.116311,0.02908 0.274162,0.02908 z"
         style="font-style:normal;font-variant:normal;font-weight:normal;font-stretch:normal;line-height:1.5;font-family:Exo;-inkscape-font-specification:Exo;text-align:center;text-anchor:middle;fill:#e6e6e6;stroke-width:0.1038492"
         id="path120" />
      <path
         d="m 64.490599,92.331593 v -3.20271 h 0.265854 l 0.06231,0.228469 q 0.07477,-0.054 0.191083,-0.112158 0.120465,-0.06231 0.257546,-0.103849 0.141235,-0.04154 0.278316,-0.04154 0.216006,0 0.365549,0.09554 0.153697,0.09139 0.249238,0.249238 0.09554,0.157851 0.137081,0.361395 0.04154,0.203545 0.04154,0.427859 0,0.373857 -0.08723,0.631403 -0.08308,0.253392 -0.257546,0.382165 -0.174466,0.128773 -0.448628,0.128773 -0.186929,0 -0.378011,-0.05815 -0.186929,-0.06231 -0.348934,-0.153697 v 1.167265 z m 0.96372,-1.233729 q 0.157851,0 0.28247,-0.07892 0.124619,-0.07892 0.199391,-0.265854 0.07477,-0.191083 0.07477,-0.519246 0,-0.311548 -0.07893,-0.498476 -0.07893,-0.191083 -0.203545,-0.274162 -0.124619,-0.08723 -0.274162,-0.08723 -0.191082,0 -0.353087,0.06231 -0.157851,0.05816 -0.28247,0.124619 v 1.358348 q 0.145389,0.07892 0.307394,0.128773 0.166159,0.04985 0.328163,0.04985 z"
         style="font-style:normal;font-variant:normal;font-weight:normal;font-stretch:normal;line-height:1.5;font-family:Exo;-inkscape-font-specification:Exo;text-align:center;text-anchor:middle;fill:#e6e6e6;stroke-width:0.1038492"
         id="path122" />
      <path
         d="m 68.445168,91.372026 q -0.245084,0 -0.402935,-0.145389 -0.157851,-0.145389 -0.157851,-0.411243 v -0.15785 q 0,-0.2617 0.170313,-0.423705 0.174466,-0.162005 0.5234,-0.162005 h 0.751868 v -0.274162 q 0,-0.137081 -0.04985,-0.232622 -0.04569,-0.09969 -0.170312,-0.153697 -0.120465,-0.054 -0.353088,-0.054 h -0.689558 v -0.195237 q 0.145389,-0.02492 0.336471,-0.04569 0.195237,-0.02077 0.456937,-0.02077 0.270008,-0.0042 0.448628,0.06646 0.178621,0.07062 0.2617,0.224314 0.08723,0.149543 0.08723,0.394627 v 1.566046 h -0.253392 l -0.06231,-0.253392 q -0.01662,0.01662 -0.103849,0.05816 -0.08308,0.04154 -0.216007,0.09554 -0.128773,0.04985 -0.282469,0.08723 -0.149543,0.03739 -0.294932,0.03739 z m 0.137081,-0.245084 q 0.07477,0.0042 0.170312,-0.01662 0.09554,-0.02077 0.195237,-0.04569 0.09969,-0.02908 0.182775,-0.05816 0.08723,-0.02908 0.141235,-0.04985 0.054,-0.02077 0.05816,-0.02077 v -0.697867 l -0.677097,0.02908 q -0.236776,0.0083 -0.340625,0.116311 -0.09969,0.108003 -0.09969,0.278316 v 0.09969 q 0,0.132927 0.054,0.216006 0.05816,0.07893 0.141235,0.112157 0.08723,0.03323 0.174467,0.03739 z"
         style="font-style:normal;font-variant:normal;font-weight:normal;font-stretch:normal;line-height:1.5;font-family:Exo;-inkscape-font-specification:Exo;text-align:center;text-anchor:middle;fill:#e6e6e6;stroke-width:0.1038492"
         id="path124" />
      <path
         d="m 70.27706,91.347102 v -2.218219 h 0.257546 l 0.07062,0.245084 q 0.157851,-0.112157 0.369703,-0.195236 0.211853,-0.08723 0.440321,-0.08723 0.245084,0 0.394627,0.103849 0.149543,0.103849 0.22016,0.274162 0.07062,0.170312 0.07062,0.369703 v 1.50789 h -0.328164 v -1.470504 q 0,-0.141235 -0.05815,-0.249238 -0.054,-0.112158 -0.157851,-0.174467 -0.09969,-0.06231 -0.249238,-0.06231 -0.137081,0 -0.257546,0.02908 -0.116311,0.02492 -0.224314,0.07477 -0.10385,0.04569 -0.220161,0.112157 v 1.740512 z"
         style="font-style:normal;font-variant:normal;font-weight:normal;font-stretch:normal;line-height:1.5;font-family:Exo;-inkscape-font-specification:Exo;text-align:center;text-anchor:middle;fill:#e6e6e6;stroke-width:0.1038492"
         id="path126" />
      <path
         d="m 73.438226,91.372026 q -0.274162,0 -0.452783,-0.116311 -0.174466,-0.120465 -0.2617,-0.365549 -0.08308,-0.249238 -0.08308,-0.635557 0,-0.411243 0.08308,-0.664635 0.08308,-0.257546 0.265854,-0.373857 0.182775,-0.116311 0.490169,-0.116311 0.186928,0 0.365549,0.04154 0.17862,0.04154 0.315701,0.09139 v -1.055108 h 0.328164 v 3.169477 h -0.265854 l -0.06231,-0.224314 q -0.06231,0.054 -0.186928,0.112157 -0.120465,0.05816 -0.265854,0.09969 -0.141235,0.03739 -0.270008,0.03739 z m 0.09554,-0.270008 q 0.191083,0 0.34478,-0.05815 0.15785,-0.06231 0.282469,-0.128773 v -1.449735 q -0.149542,-0.04569 -0.286623,-0.07477 -0.137081,-0.03323 -0.307394,-0.03323 -0.211852,0 -0.344779,0.07892 -0.132927,0.07892 -0.195237,0.274162 -0.05816,0.191082 -0.05816,0.531708 0,0.307393 0.054,0.498476 0.05816,0.191083 0.182775,0.278316 0.124619,0.08308 0.328163,0.08308 z"
         style="font-style:normal;font-variant:normal;font-weight:normal;font-stretch:normal;line-height:1.5;font-family:Exo;-inkscape-font-specification:Exo;text-align:center;text-anchor:middle;fill:#e6e6e6;stroke-width:0.1038492"
         id="path128" />
      <path
         d="m 76.964935,91.347102 q -0.216006,0 -0.357241,-0.07062 -0.141235,-0.07062 -0.207698,-0.228468 -0.06646,-0.157851 -0.06231,-0.419551 l 0.01246,-1.229575 h -0.353087 v -0.211852 l 0.357241,-0.05816 0.054,-0.618941 h 0.253392 v 0.618941 h 0.639711 v 0.270008 h -0.639711 v 1.229575 q 0,0.145389 0.02908,0.232622 0.03323,0.08723 0.08308,0.132927 0.054,0.04569 0.112157,0.06646 0.05816,0.01662 0.112157,0.02077 l 0.270008,0.02492 v 0.24093 z"
         style="font-style:normal;font-variant:normal;font-weight:normal;font-stretch:normal;line-height:1.5;font-family:Exo;-inkscape-font-specification:Exo;text-align:center;text-anchor:middle;fill:#e6e6e6;stroke-width:0.1038492"
         id="path130" />
      <path
         d="m 78.601593,91.372026 q -0.348934,0 -0.552478,-0.103849 -0.199391,-0.103849 -0.286624,-0.353087 -0.08723,-0.249238 -0.08723,-0.681251 0,-0.440321 0.08723,-0.685405 0.09139,-0.249238 0.294932,-0.348933 0.203544,-0.09969 0.548323,-0.09969 0.294932,0 0.477707,0.06646 0.186928,0.06646 0.274162,0.228468 0.09139,0.157851 0.09139,0.440321 0,0.195236 -0.07892,0.315702 -0.07477,0.116311 -0.220161,0.170312 -0.141235,0.04985 -0.336471,0.04985 h -0.810024 q 0.0042,0.270008 0.05816,0.436167 0.054,0.162004 0.195236,0.236776 0.145389,0.07062 0.423705,0.07062 H 79.395 v 0.199391 q -0.191082,0.02492 -0.373857,0.04154 -0.182774,0.01662 -0.41955,0.01662 z m -0.602326,-1.217113 h 0.789254 q 0.186929,0 0.274162,-0.06646 0.09139,-0.07062 0.09139,-0.249238 0,-0.191083 -0.05815,-0.294932 -0.054,-0.108003 -0.174467,-0.149543 -0.116311,-0.04569 -0.315702,-0.04569 -0.232622,0 -0.365549,0.07062 -0.132927,0.06646 -0.186928,0.24093 -0.054,0.174467 -0.054,0.494322 z"
         style="font-style:normal;font-variant:normal;font-weight:normal;font-stretch:normal;line-height:1.5;font-family:Exo;-inkscape-font-specification:Exo;text-align:center;text-anchor:middle;fill:#e6e6e6;stroke-width:0.1038492"
         id="path132" />
      <path
         d="m 80.765805,91.372026 q -0.08308,0 -0.203545,-0.0042 -0.120465,-0.0042 -0.253392,-0.01246 -0.128773,-0.0083 -0.236776,-0.01662 -0.103849,-0.01246 -0.162005,-0.02492 V 91.11448 h 0.909719 q 0.137081,0 0.236776,-0.02077 0.0997,-0.02077 0.153697,-0.09139 0.05816,-0.07062 0.05816,-0.211852 v -0.0997 q 0,-0.145388 -0.09554,-0.224314 -0.09554,-0.08308 -0.307394,-0.08308 h -0.311548 q -0.195236,0 -0.348933,-0.04985 -0.149543,-0.04985 -0.232622,-0.170313 -0.08308,-0.120465 -0.08308,-0.332317 v -0.116311 q 0,-0.207699 0.07893,-0.340626 0.08308,-0.132927 0.253392,-0.19939 0.174467,-0.06646 0.448628,-0.06646 0.116312,0 0.265854,0.0083 0.153697,0.0083 0.299086,0.02492 0.145389,0.01246 0.236776,0.02908 v 0.19939 h -0.855717 q -0.211853,0 -0.328164,0.07062 -0.112157,0.07062 -0.112157,0.274162 v 0.09139 q 0,0.128773 0.054,0.195237 0.054,0.06231 0.149543,0.08308 0.09969,0.02077 0.228468,0.02077 h 0.315701 q 0.30324,0 0.469399,0.141235 0.166159,0.141235 0.166159,0.407089 v 0.153697 q 0,0.224314 -0.10385,0.348933 -0.0997,0.120465 -0.278315,0.170313 -0.174467,0.04569 -0.411243,0.04569 z"
         style="font-style:normal;font-variant:normal;font-weight:normal;font-stretch:normal;line-height:1.5;font-family:Exo;-inkscape-font-specification:Exo;text-align:center;text-anchor:middle;fill:#e6e6e6;stroke-width:0.1038492"
         id="path134" />
      <path
         d="m 82.813702,91.347102 q -0.216007,0 -0.357241,-0.07062 -0.141235,-0.07062 -0.207699,-0.228468 -0.06646,-0.157851 -0.06231,-0.419551 l 0.01246,-1.229575 h -0.353087 v -0.211852 l 0.357241,-0.05816 0.054,-0.618941 h 0.253392 v 0.618941 h 0.639711 v 0.270008 h -0.639711 v 1.229575 q 0,0.145389 0.02908,0.232622 0.03323,0.08723 0.08308,0.132927 0.054,0.04569 0.112157,0.06646 0.05816,0.01662 0.112158,0.02077 l 0.270007,0.02492 v 0.24093 z"
         style="font-style:normal;font-variant:normal;font-weight:normal;font-stretch:normal;line-height:1.5;font-family:Exo;-inkscape-font-specification:Exo;text-align:center;text-anchor:middle;fill:#e6e6e6;stroke-width:0.1038492"
         id="path136" />
      <path
         d="m 85.318534,92.331593 0.282469,-0.984491 q -0.103849,-0.0042 -0.216006,-0.04985 -0.112157,-0.04569 -0.207698,-0.157851 -0.09554,-0.112157 -0.157851,-0.311548 L 84.48774,89.128883 h 0.344779 l 0.494322,1.628356 q 0.04569,0.128773 0.09554,0.191082 0.054,0.06231 0.108003,0.08723 0.054,0.02492 0.09139,0.02908 0.04154,0 0.04985,0 l 0.569094,-1.93575 h 0.336471 l -0.810024,2.791467 -0.191082,0.411243 z"
         style="font-style:normal;font-variant:normal;font-weight:normal;font-stretch:normal;line-height:1.5;font-family:Exo;-inkscape-font-specification:Exo;text-align:center;text-anchor:middle;fill:#e6e6e6;stroke-width:0.1038492"
         id="path138" />
      <path
         d="m 87.852449,91.372026 q -0.24093,0 -0.423705,-0.04985 -0.17862,-0.04985 -0.299086,-0.174467 -0.120465,-0.124619 -0.17862,-0.344779 -0.05816,-0.224315 -0.05816,-0.569094 0,-0.348933 0.05816,-0.569094 0.05815,-0.224314 0.17862,-0.344779 0.120466,-0.124619 0.299086,-0.170313 0.182775,-0.04985 0.423705,-0.04985 0.24093,0 0.419551,0.04985 0.182774,0.04985 0.303239,0.174467 0.120465,0.120465 0.178621,0.344779 0.06231,0.220161 0.06231,0.56494 0,0.348933 -0.06231,0.573248 -0.05816,0.22016 -0.178621,0.344779 -0.116311,0.120465 -0.299085,0.170313 -0.182775,0.04985 -0.423705,0.04985 z m 0,-0.270008 q 0.153697,0 0.270008,-0.02908 0.120465,-0.02908 0.19939,-0.116311 0.07893,-0.08723 0.120465,-0.2617 0.04154,-0.174466 0.04154,-0.46109 0,-0.290778 -0.04154,-0.461091 -0.04154,-0.170312 -0.120465,-0.257546 -0.07893,-0.08723 -0.19939,-0.116311 -0.116311,-0.02908 -0.270008,-0.02908 -0.157851,0 -0.274162,0.02908 -0.116311,0.02908 -0.195237,0.116311 -0.07892,0.08723 -0.120465,0.257546 -0.04154,0.170313 -0.04154,0.461091 0,0.286624 0.04154,0.46109 0.04154,0.174467 0.120465,0.2617 0.07893,0.08723 0.195237,0.116311 0.116311,0.02908 0.274162,0.02908 z"
         style="font-style:normal;font-variant:normal;font-weight:normal;font-stretch:normal;line-height:1.5;font-family:Exo;-inkscape-font-specification:Exo;text-align:center;text-anchor:middle;fill:#e6e6e6;stroke-width:0.1038492"
         id="path140" />
      <path
         d="m 90.029128,91.372026 q -0.319856,0 -0.494322,-0.166159 -0.170313,-0.166158 -0.170313,-0.515092 v -1.561892 h 0.328163 v 1.478813 q 0,0.278316 0.124619,0.378011 0.128773,0.09554 0.357242,0.09554 0.195236,0 0.357241,-0.054 0.162005,-0.05816 0.332317,-0.157851 v -1.740513 h 0.328164 v 2.218219 h -0.257546 l -0.07062,-0.245084 q -0.170312,0.108003 -0.386319,0.191083 -0.211852,0.07893 -0.448628,0.07893 z"
         style="font-style:normal;font-variant:normal;font-weight:normal;font-stretch:normal;line-height:1.5;font-family:Exo;-inkscape-font-specification:Exo;text-align:center;text-anchor:middle;fill:#e6e6e6;stroke-width:0.1038492"
         id="path142" />
      <path
         d="m 91.811175,91.347102 v -2.218219 h 0.249238 l 0.07892,0.386319 q 0.149543,-0.17862 0.332318,-0.294931 0.186928,-0.116311 0.427858,-0.116311 0.05816,0 0.108003,0.0042 0.054,0.0042 0.0997,0.01662 v 0.336472 q -0.054,-0.0083 -0.116311,-0.01246 -0.06231,-0.0083 -0.12462,-0.0083 -0.153696,0 -0.274161,0.03739 -0.120465,0.03739 -0.228469,0.112157 -0.108003,0.07477 -0.224314,0.182774 v 1.574354 z"
         style="font-style:normal;font-variant:normal;font-weight:normal;font-stretch:normal;line-height:1.5;font-family:Exo;-inkscape-font-specification:Exo;text-align:center;text-anchor:middle;fill:#e6e6e6;stroke-width:0.1038492"
         id="path144" />
      <path
         d="m 95.450041,91.372026 q -0.186929,0 -0.348934,-0.04985 -0.162004,-0.04985 -0.282469,-0.174467 -0.120466,-0.124619 -0.186929,-0.344779 -0.06646,-0.220161 -0.06646,-0.560786 0,-0.34478 0.06231,-0.56494 0.06231,-0.224314 0.178621,-0.348933 0.116311,-0.124619 0.28247,-0.174467 0.166158,-0.04985 0.369703,-0.04985 0.166158,0 0.361395,0.01662 0.195236,0.01246 0.373857,0.04154 v 0.195237 h -0.648019 q -0.211852,0 -0.357241,0.07062 -0.145389,0.07062 -0.220161,0.265854 -0.07477,0.191083 -0.07477,0.556632 0,0.353087 0.07892,0.540016 0.07893,0.186928 0.224315,0.257546 0.145389,0.06646 0.353087,0.06646 h 0.677097 v 0.191083 q -0.09554,0.01662 -0.224314,0.03323 -0.124619,0.01662 -0.265854,0.02492 -0.141235,0.0083 -0.286624,0.0083 z"
         style="font-style:normal;font-variant:normal;font-weight:normal;font-stretch:normal;line-height:1.5;font-family:Exo;-inkscape-font-specification:Exo;text-align:center;text-anchor:middle;fill:#e6e6e6;stroke-width:0.1038492"
         id="path146" />
      <path
         d="m 97.261169,91.351256 q -0.191083,0 -0.319856,-0.06646 -0.128773,-0.07062 -0.195236,-0.224314 -0.06646,-0.157851 -0.06646,-0.423705 v -2.459149 h 0.328164 v 2.417609 q 0,0.199391 0.03739,0.30324 0.03739,0.0997 0.108004,0.141235 0.07062,0.03739 0.166158,0.04985 l 0.224315,0.02492 v 0.236776 z"
         style="font-style:normal;font-variant:normal;font-weight:normal;font-stretch:normal;line-height:1.5;font-family:Exo;-inkscape-font-specification:Exo;text-align:center;text-anchor:middle;fill:#e6e6e6;stroke-width:0.1038492"
         id="path148" />
      <path
         d="m 98.781518,91.372026 q -0.24093,0 -0.423704,-0.04985 -0.178621,-0.04985 -0.299086,-0.174467 -0.120465,-0.124619 -0.178621,-0.344779 -0.05815,-0.224315 -0.05815,-0.569094 0,-0.348933 0.05815,-0.569094 0.05816,-0.224314 0.178621,-0.344779 0.120465,-0.124619 0.299086,-0.170313 0.182774,-0.04985 0.423704,-0.04985 0.240931,0 0.419551,0.04985 0.182775,0.04985 0.30324,0.174467 0.120465,0.120465 0.178621,0.344779 0.06231,0.220161 0.06231,0.56494 0,0.348933 -0.06231,0.573248 -0.05816,0.22016 -0.178621,0.344779 -0.116311,0.120465 -0.299086,0.170313 -0.182774,0.04985 -0.423705,0.04985 z m 0,-0.270008 q 0.153697,0 0.270008,-0.02908 0.120465,-0.02908 0.199391,-0.116311 0.07892,-0.08723 0.120465,-0.2617 0.04154,-0.174466 0.04154,-0.46109 0,-0.290778 -0.04154,-0.461091 -0.04154,-0.170312 -0.120465,-0.257546 -0.07893,-0.08723 -0.199391,-0.116311 -0.116311,-0.02908 -0.270008,-0.02908 -0.15785,0 -0.274161,0.02908 -0.116312,0.02908 -0.195237,0.116311 -0.07892,0.08723 -0.120465,0.257546 -0.04154,0.170313 -0.04154,0.461091 0,0.286624 0.04154,0.46109 0.04154,0.174467 0.120465,0.2617 0.07893,0.08723 0.195237,0.116311 0.116311,0.02908 0.274161,0.02908 z"
         style="font-style:normal;font-variant:normal;font-weight:normal;font-stretch:normal;line-height:1.5;font-family:Exo;-inkscape-font-specification:Exo;text-align:center;text-anchor:middle;fill:#e6e6e6;stroke-width:0.1038492"
         id="path150" />
      <path
         d="m 100.9582,91.372026 q -0.31986,0 -0.49432,-0.166159 -0.17032,-0.166158 -0.17032,-0.515092 v -1.561892 h 0.32817 v 1.478813 q 0,0.278316 0.12461,0.378011 0.12878,0.09554 0.35725,0.09554 0.19523,0 0.35724,-0.054 0.162,-0.05816 0.33231,-0.157851 v -1.740513 h 0.32817 v 2.218219 h -0.25755 l -0.0706,-0.245084 q -0.17031,0.108003 -0.38631,0.191083 -0.21186,0.07893 -0.44863,0.07893 z"
         style="font-style:normal;font-variant:normal;font-weight:normal;font-stretch:normal;line-height:1.5;font-family:Exo;-inkscape-font-specification:Exo;text-align:center;text-anchor:middle;fill:#e6e6e6;stroke-width:0.1038492"
         id="path152" />
      <path
         d="m 103.45888,91.372026 q -0.27416,0 -0.45278,-0.116311 -0.17447,-0.120465 -0.2617,-0.365549 -0.0831,-0.249238 -0.0831,-0.635557 0,-0.411243 0.0831,-0.664635 0.0831,-0.257546 0.26585,-0.373857 0.18278,-0.116311 0.49017,-0.116311 0.18693,0 0.36555,0.04154 0.17862,0.04154 0.3157,0.09139 v -1.055108 h 0.32816 v 3.169477 h -0.26585 l -0.0623,-0.224314 q -0.0623,0.054 -0.18693,0.112157 -0.12046,0.05816 -0.26585,0.09969 -0.14124,0.03739 -0.27001,0.03739 z m 0.0955,-0.270008 q 0.19108,0 0.34478,-0.05815 0.15785,-0.06231 0.28247,-0.128773 v -1.449735 q -0.14954,-0.04569 -0.28662,-0.07477 -0.13708,-0.03323 -0.3074,-0.03323 -0.21185,0 -0.34478,0.07892 -0.13292,0.07892 -0.19523,0.274162 -0.0582,0.191082 -0.0582,0.531708 0,0.307393 0.054,0.498476 0.0582,0.191083 0.18278,0.278316 0.12462,0.08308 0.32816,0.08308 z"
         style="font-style:normal;font-variant:normal;font-weight:normal;font-stretch:normal;line-height:1.5;font-family:Exo;-inkscape-font-specification:Exo;text-align:center;text-anchor:middle;fill:#e6e6e6;stroke-width:0.1038492"
         id="path154" />
      <path
         d="m 106.68235,91.372026 q -0.24508,0 -0.40293,-0.145389 -0.15786,-0.145389 -0.15786,-0.411243 v -0.15785 q 0,-0.2617 0.17032,-0.423705 0.17446,-0.162005 0.5234,-0.162005 h 0.75187 v -0.274162 q 0,-0.137081 -0.0498,-0.232622 -0.0457,-0.09969 -0.17031,-0.153697 -0.12047,-0.054 -0.35309,-0.054 h -0.68956 v -0.195237 q 0.14539,-0.02492 0.33647,-0.04569 0.19524,-0.02077 0.45694,-0.02077 0.27001,-0.0042 0.44863,0.06646 0.17862,0.07062 0.2617,0.224314 0.0872,0.149543 0.0872,0.394627 v 1.566046 h -0.25339 l -0.0623,-0.253392 q -0.0166,0.01662 -0.10385,0.05816 -0.0831,0.04154 -0.21601,0.09554 -0.12877,0.04985 -0.28247,0.08723 -0.14954,0.03739 -0.29493,0.03739 z m 0.13708,-0.245084 q 0.0748,0.0042 0.17031,-0.01662 0.0956,-0.02077 0.19524,-0.04569 0.0997,-0.02908 0.18278,-0.05816 0.0872,-0.02908 0.14123,-0.04985 0.054,-0.02077 0.0582,-0.02077 v -0.697867 l -0.6771,0.02908 q -0.23678,0.0083 -0.34063,0.116311 -0.0997,0.108003 -0.0997,0.278316 v 0.09969 q 0,0.132927 0.054,0.216006 0.0582,0.07893 0.14123,0.112157 0.0872,0.03323 0.17447,0.03739 z"
         style="font-style:normal;font-variant:normal;font-weight:normal;font-stretch:normal;line-height:1.5;font-family:Exo;-inkscape-font-specification:Exo;text-align:center;text-anchor:middle;fill:#e6e6e6;stroke-width:0.1038492"
         id="path156" />
      <path
         d="m 108.51424,91.347102 v -2.218219 h 0.25755 l 0.0706,0.245084 q 0.15785,-0.112157 0.3697,-0.195236 0.21185,-0.08723 0.44032,-0.08723 0.24508,0 0.39463,0.103849 0.14954,0.103849 0.22016,0.274162 0.0706,0.170312 0.0706,0.369703 v 1.50789 h -0.32816 v -1.470504 q 0,-0.141235 -0.0581,-0.249238 -0.054,-0.112158 -0.15786,-0.174467 -0.0997,-0.06231 -0.24923,-0.06231 -0.13708,0 -0.25755,0.02908 -0.11631,0.02492 -0.22431,0.07477 -0.10385,0.04569 -0.22016,0.112157 v 1.740512 z"
         style="font-style:normal;font-variant:normal;font-weight:normal;font-stretch:normal;line-height:1.5;font-family:Exo;-inkscape-font-specification:Exo;text-align:center;text-anchor:middle;fill:#e6e6e6;stroke-width:0.1038492"
         id="path158" />
      <path
         d="m 111.67541,91.372026 q -0.27416,0 -0.45278,-0.116311 -0.17447,-0.120465 -0.2617,-0.365549 -0.0831,-0.249238 -0.0831,-0.635557 0,-0.411243 0.0831,-0.664635 0.0831,-0.257546 0.26585,-0.373857 0.18278,-0.116311 0.49017,-0.116311 0.18693,0 0.36555,0.04154 0.17862,0.04154 0.3157,0.09139 v -1.055108 h 0.32816 v 3.169477 h -0.26585 l -0.0623,-0.224314 q -0.0623,0.054 -0.18693,0.112157 -0.12046,0.05816 -0.26585,0.09969 -0.14124,0.03739 -0.27001,0.03739 z m 0.0955,-0.270008 q 0.19108,0 0.34478,-0.05815 0.15785,-0.06231 0.28247,-0.128773 v -1.449735 q -0.14954,-0.04569 -0.28662,-0.07477 -0.13708,-0.03323 -0.3074,-0.03323 -0.21185,0 -0.34478,0.07892 -0.13292,0.07892 -0.19523,0.274162 -0.0582,0.191082 -0.0582,0.531708 0,0.307393 0.054,0.498476 0.0582,0.191083 0.18278,0.278316 0.12462,0.08308 0.32816,0.08308 z"
         style="font-style:normal;font-variant:normal;font-weight:normal;font-stretch:normal;line-height:1.5;font-family:Exo;-inkscape-font-specification:Exo;text-align:center;text-anchor:middle;fill:#e6e6e6;stroke-width:0.1038492"
         id="path160" />
      <path
         d="m 115.2312,91.372026 q -0.0831,0 -0.20355,-0.0042 -0.12046,-0.0042 -0.25339,-0.01246 -0.12877,-0.0083 -0.23677,-0.01662 -0.10385,-0.01246 -0.16201,-0.02492 V 91.11448 h 0.90972 q 0.13708,0 0.23678,-0.02077 0.0997,-0.02077 0.15369,-0.09139 0.0582,-0.07062 0.0582,-0.211852 v -0.0997 q 0,-0.145388 -0.0955,-0.224314 -0.0955,-0.08308 -0.3074,-0.08308 h -0.31154 q -0.19524,0 -0.34894,-0.04985 -0.14954,-0.04985 -0.23262,-0.170313 -0.0831,-0.120465 -0.0831,-0.332317 v -0.116311 q 0,-0.207699 0.0789,-0.340626 0.0831,-0.132927 0.25339,-0.19939 0.17446,-0.06646 0.44863,-0.06646 0.11631,0 0.26585,0.0083 0.1537,0.0083 0.29909,0.02492 0.14539,0.01246 0.23677,0.02908 v 0.19939 h -0.85572 q -0.21185,0 -0.32816,0.07062 -0.11216,0.07062 -0.11216,0.274162 v 0.09139 q 0,0.128773 0.054,0.195237 0.054,0.06231 0.14954,0.08308 0.0997,0.02077 0.22847,0.02077 h 0.3157 q 0.30324,0 0.4694,0.141235 0.16616,0.141235 0.16616,0.407089 v 0.153697 q 0,0.224314 -0.10385,0.348933 -0.0997,0.120465 -0.27832,0.170313 -0.17447,0.04569 -0.41124,0.04569 z"
         style="font-style:normal;font-variant:normal;font-weight:normal;font-stretch:normal;line-height:1.5;font-family:Exo;-inkscape-font-specification:Exo;text-align:center;text-anchor:middle;fill:#e6e6e6;stroke-width:0.1038492"
         id="path162" />
      <path
         d="m 117.39125,91.372026 q -0.34893,0 -0.55247,-0.103849 -0.19939,-0.103849 -0.28663,-0.353087 -0.0872,-0.249238 -0.0872,-0.681251 0,-0.440321 0.0872,-0.685405 0.0914,-0.249238 0.29493,-0.348933 0.20355,-0.09969 0.54833,-0.09969 0.29493,0 0.4777,0.06646 0.18693,0.06646 0.27417,0.228468 0.0914,0.157851 0.0914,0.440321 0,0.195236 -0.0789,0.315702 -0.0748,0.116311 -0.22016,0.170312 -0.14124,0.04985 -0.33647,0.04985 h -0.81003 q 0.004,0.270008 0.0582,0.436167 0.054,0.162004 0.19523,0.236776 0.14539,0.07062 0.42371,0.07062 h 0.71448 v 0.199391 q -0.19108,0.02492 -0.37386,0.04154 -0.18277,0.01662 -0.41955,0.01662 z m -0.60232,-1.217113 h 0.78925 q 0.18693,0 0.27416,-0.06646 0.0914,-0.07062 0.0914,-0.249238 0,-0.191083 -0.0581,-0.294932 -0.054,-0.108003 -0.17447,-0.149543 -0.11631,-0.04569 -0.3157,-0.04569 -0.23262,0 -0.36555,0.07062 -0.13293,0.06646 -0.18693,0.24093 -0.054,0.174467 -0.054,0.494322 z"
         style="font-style:normal;font-variant:normal;font-weight:normal;font-stretch:normal;line-height:1.5;font-family:Exo;-inkscape-font-specification:Exo;text-align:center;text-anchor:middle;fill:#e6e6e6;stroke-width:0.1038492"
         id="path164" />
      <path
         d="m 118.79114,91.347102 v -2.218219 h 0.24923 l 0.0789,0.386319 q 0.14954,-0.17862 0.33232,-0.294931 0.18693,-0.116311 0.42786,-0.116311 0.0581,0 0.108,0.0042 0.054,0.0042 0.0997,0.01662 v 0.336472 q -0.054,-0.0083 -0.11631,-0.01246 -0.0623,-0.0083 -0.12462,-0.0083 -0.15369,0 -0.27416,0.03739 -0.12046,0.03739 -0.22847,0.112157 -0.108,0.07477 -0.22431,0.182774 v 1.574354 z"
         style="font-style:normal;font-variant:normal;font-weight:normal;font-stretch:normal;line-height:1.5;font-family:Exo;-inkscape-font-specification:Exo;text-align:center;text-anchor:middle;fill:#e6e6e6;stroke-width:0.1038492"
         id="path166" />
      <path
         d="m 121.10073,91.347102 -0.83494,-2.218219 h 0.33647 l 0.68956,1.910826 0.71032,-1.910826 h 0.33232 l -0.85987,2.218219 z"
         style="font-style:normal;font-variant:normal;font-weight:normal;font-stretch:normal;line-height:1.5;font-family:Exo;-inkscape-font-specification:Exo;text-align:center;text-anchor:middle;fill:#e6e6e6;stroke-width:0.1038492"
         id="path168" />
      <path
         d="m 123.49341,91.372026 q -0.34893,0 -0.55248,-0.103849 -0.19939,-0.103849 -0.28662,-0.353087 -0.0872,-0.249238 -0.0872,-0.681251 0,-0.440321 0.0872,-0.685405 0.0914,-0.249238 0.29493,-0.348933 0.20355,-0.09969 0.54833,-0.09969 0.29493,0 0.4777,0.06646 0.18693,0.06646 0.27416,0.228468 0.0914,0.157851 0.0914,0.440321 0,0.195236 -0.0789,0.315702 -0.0748,0.116311 -0.22016,0.170312 -0.14124,0.04985 -0.33648,0.04985 h -0.81002 q 0.004,0.270008 0.0582,0.436167 0.054,0.162004 0.19523,0.236776 0.14539,0.07062 0.42371,0.07062 h 0.71448 v 0.199391 q -0.19108,0.02492 -0.37386,0.04154 -0.18277,0.01662 -0.41955,0.01662 z m -0.60232,-1.217113 h 0.78925 q 0.18693,0 0.27416,-0.06646 0.0914,-0.07062 0.0914,-0.249238 0,-0.191083 -0.0582,-0.294932 -0.054,-0.108003 -0.17446,-0.149543 -0.11631,-0.04569 -0.3157,-0.04569 -0.23263,0 -0.36555,0.07062 -0.13293,0.06646 -0.18693,0.24093 -0.054,0.174467 -0.054,0.494322 z"
         style="font-style:normal;font-variant:normal;font-weight:normal;font-stretch:normal;line-height:1.5;font-family:Exo;-inkscape-font-specification:Exo;text-align:center;text-anchor:middle;fill:#e6e6e6;stroke-width:0.1038492"
         id="path170" />
      <path
         d="m 124.89329,91.347102 v -2.218219 h 0.24924 l 0.0789,0.386319 q 0.14954,-0.17862 0.33231,-0.294931 0.18693,-0.116311 0.42786,-0.116311 0.0582,0 0.10801,0.0042 0.054,0.0042 0.0997,0.01662 v 0.336472 q -0.054,-0.0083 -0.11631,-0.01246 -0.0623,-0.0083 -0.12462,-0.0083 -0.1537,0 -0.27416,0.03739 -0.12047,0.03739 -0.22847,0.112157 -0.108,0.07477 -0.22431,0.182774 v 1.574354 z"
         style="font-style:normal;font-variant:normal;font-weight:normal;font-stretch:normal;line-height:1.5;font-family:Exo;-inkscape-font-specification:Exo;text-align:center;text-anchor:middle;fill:#e6e6e6;stroke-width:0.1038492"
         id="path172" />
      <path
         d="m 127.18628,91.351256 q -0.19108,0 -0.31985,-0.06646 -0.12878,-0.07062 -0.19524,-0.224314 -0.0665,-0.157851 -0.0665,-0.423705 v -2.459149 h 0.32816 v 2.417609 q 0,0.199391 0.0374,0.30324 0.0374,0.0997 0.108,0.141235 0.0706,0.03739 0.16616,0.04985 l 0.22431,0.02492 v 0.236776 z"
         style="font-style:normal;font-variant:normal;font-weight:normal;font-stretch:normal;line-height:1.5;font-family:Exo;-inkscape-font-specification:Exo;text-align:center;text-anchor:middle;fill:#e6e6e6;stroke-width:0.1038492"
         id="path174" />
      <path
         d="m 128.6734,91.372026 q -0.34894,0 -0.55248,-0.103849 -0.19939,-0.103849 -0.28663,-0.353087 -0.0872,-0.249238 -0.0872,-0.681251 0,-0.440321 0.0872,-0.685405 0.0914,-0.249238 0.29494,-0.348933 0.20354,-0.09969 0.54832,-0.09969 0.29493,0 0.47771,0.06646 0.18693,0.06646 0.27416,0.228468 0.0914,0.157851 0.0914,0.440321 0,0.195236 -0.0789,0.315702 -0.0748,0.116311 -0.22016,0.170312 -0.14123,0.04985 -0.33647,0.04985 h -0.81002 q 0.004,0.270008 0.0581,0.436167 0.054,0.162004 0.19524,0.236776 0.14539,0.07062 0.4237,0.07062 h 0.71448 v 0.199391 q -0.19108,0.02492 -0.37385,0.04154 -0.18278,0.01662 -0.41955,0.01662 z m -0.60233,-1.217113 h 0.78926 q 0.18692,0 0.27416,-0.06646 0.0914,-0.07062 0.0914,-0.249238 0,-0.191083 -0.0581,-0.294932 -0.054,-0.108003 -0.17447,-0.149543 -0.11631,-0.04569 -0.3157,-0.04569 -0.23262,0 -0.36555,0.07062 -0.13293,0.06646 -0.18693,0.24093 -0.054,0.174467 -0.054,0.494322 z"
         style="font-style:normal;font-variant:normal;font-weight:normal;font-stretch:normal;line-height:1.5;font-family:Exo;-inkscape-font-specification:Exo;text-align:center;text-anchor:middle;fill:#e6e6e6;stroke-width:0.1038492"
         id="path176" />
      <path
         d="m 130.83761,91.372026 q -0.0831,0 -0.20355,-0.0042 -0.12046,-0.0042 -0.25339,-0.01246 -0.12877,-0.0083 -0.23677,-0.01662 -0.10385,-0.01246 -0.16201,-0.02492 V 91.11448 h 0.90972 q 0.13708,0 0.23678,-0.02077 0.0997,-0.02077 0.15369,-0.09139 0.0582,-0.07062 0.0582,-0.211852 v -0.0997 q 0,-0.145388 -0.0955,-0.224314 -0.0955,-0.08308 -0.3074,-0.08308 h -0.31154 q -0.19524,0 -0.34894,-0.04985 -0.14954,-0.04985 -0.23262,-0.170313 -0.0831,-0.120465 -0.0831,-0.332317 v -0.116311 q 0,-0.207699 0.0789,-0.340626 0.0831,-0.132927 0.25339,-0.19939 0.17447,-0.06646 0.44863,-0.06646 0.11631,0 0.26585,0.0083 0.1537,0.0083 0.29909,0.02492 0.14539,0.01246 0.23677,0.02908 v 0.19939 h -0.85571 q -0.21186,0 -0.32817,0.07062 -0.11215,0.07062 -0.11215,0.274162 v 0.09139 q 0,0.128773 0.054,0.195237 0.054,0.06231 0.14954,0.08308 0.0997,0.02077 0.22847,0.02077 h 0.3157 q 0.30324,0 0.4694,0.141235 0.16616,0.141235 0.16616,0.407089 v 0.153697 q 0,0.224314 -0.10385,0.348933 -0.0997,0.120465 -0.27832,0.170313 -0.17447,0.04569 -0.41124,0.04569 z"
         style="font-style:normal;font-variant:normal;font-weight:normal;font-stretch:normal;line-height:1.5;font-family:Exo;-inkscape-font-specification:Exo;text-align:center;text-anchor:middle;fill:#e6e6e6;stroke-width:0.1038492"
         id="path178" />
      <path
         d="m 132.91458,91.372026 q -0.0831,0 -0.20354,-0.0042 -0.12047,-0.0042 -0.25339,-0.01246 -0.12878,-0.0083 -0.23678,-0.01662 -0.10385,-0.01246 -0.16201,-0.02492 V 91.11448 h 0.90972 q 0.13708,0 0.23678,-0.02077 0.0997,-0.02077 0.1537,-0.09139 0.0582,-0.07062 0.0582,-0.211852 v -0.0997 q 0,-0.145388 -0.0955,-0.224314 -0.0955,-0.08308 -0.30739,-0.08308 h -0.31155 q -0.19524,0 -0.34893,-0.04985 -0.14955,-0.04985 -0.23263,-0.170313 -0.0831,-0.120465 -0.0831,-0.332317 v -0.116311 q 0,-0.207699 0.0789,-0.340626 0.0831,-0.132927 0.25339,-0.19939 0.17447,-0.06646 0.44863,-0.06646 0.11631,0 0.26585,0.0083 0.1537,0.0083 0.29909,0.02492 0.14539,0.01246 0.23678,0.02908 v 0.19939 h -0.85572 q -0.21185,0 -0.32816,0.07062 -0.11216,0.07062 -0.11216,0.274162 v 0.09139 q 0,0.128773 0.054,0.195237 0.054,0.06231 0.14954,0.08308 0.0997,0.02077 0.22847,0.02077 h 0.3157 q 0.30324,0 0.4694,0.141235 0.16616,0.141235 0.16616,0.407089 v 0.153697 q 0,0.224314 -0.10385,0.348933 -0.0997,0.120465 -0.27832,0.170313 -0.17446,0.04569 -0.41124,0.04569 z"
         style="font-style:normal;font-variant:normal;font-weight:normal;font-stretch:normal;line-height:1.5;font-family:Exo;-inkscape-font-specification:Exo;text-align:center;text-anchor:middle;fill:#e6e6e6;stroke-width:0.1038492"
         id="path180" />
      <path
         d="m 135.78081,91.372026 q -0.24508,0 -0.40293,-0.145389 -0.15785,-0.145389 -0.15785,-0.411243 v -0.15785 q 0,-0.2617 0.17031,-0.423705 0.17447,-0.162005 0.5234,-0.162005 h 0.75187 v -0.274162 q 0,-0.137081 -0.0498,-0.232622 -0.0457,-0.09969 -0.17031,-0.153697 -0.12047,-0.054 -0.35309,-0.054 h -0.68956 v -0.195237 q 0.14539,-0.02492 0.33647,-0.04569 0.19524,-0.02077 0.45694,-0.02077 0.27001,-0.0042 0.44863,0.06646 0.17862,0.07062 0.2617,0.224314 0.0872,0.149543 0.0872,0.394627 v 1.566046 h -0.25339 l -0.0623,-0.253392 q -0.0166,0.01662 -0.10385,0.05816 -0.0831,0.04154 -0.21601,0.09554 -0.12877,0.04985 -0.28247,0.08723 -0.14954,0.03739 -0.29493,0.03739 z m 0.13708,-0.245084 q 0.0748,0.0042 0.17032,-0.01662 0.0955,-0.02077 0.19523,-0.04569 0.0997,-0.02908 0.18278,-0.05816 0.0872,-0.02908 0.14123,-0.04985 0.054,-0.02077 0.0582,-0.02077 v -0.697867 l -0.6771,0.02908 q -0.23678,0.0083 -0.34063,0.116311 -0.0997,0.108003 -0.0997,0.278316 v 0.09969 q 0,0.132927 0.054,0.216006 0.0582,0.07893 0.14124,0.112157 0.0872,0.03323 0.17446,0.03739 z"
         style="font-style:normal;font-variant:normal;font-weight:normal;font-stretch:normal;line-height:1.5;font-family:Exo;-inkscape-font-specification:Exo;text-align:center;text-anchor:middle;fill:#e6e6e6;stroke-width:0.1038492"
         id="path182" />
      <path
         d="m 137.6127,92.331593 v -3.20271 h 0.26585 l 0.0623,0.228469 q 0.0748,-0.054 0.19109,-0.112158 0.12046,-0.06231 0.25754,-0.103849 0.14124,-0.04154 0.27832,-0.04154 0.216,0 0.36555,0.09554 0.15369,0.09139 0.24923,0.249238 0.0956,0.157851 0.13709,0.361395 0.0415,0.203545 0.0415,0.427859 0,0.373857 -0.0872,0.631403 -0.0831,0.253392 -0.25754,0.382165 -0.17447,0.128773 -0.44863,0.128773 -0.18693,0 -0.37801,-0.05815 -0.18693,-0.06231 -0.34894,-0.153697 v 1.167265 z m 0.96372,-1.233729 q 0.15785,0 0.28247,-0.07892 0.12462,-0.07892 0.19939,-0.265854 0.0748,-0.191083 0.0748,-0.519246 0,-0.311548 -0.0789,-0.498476 -0.0789,-0.191083 -0.20355,-0.274162 -0.12462,-0.08723 -0.27416,-0.08723 -0.19108,0 -0.35309,0.06231 -0.15785,0.05816 -0.28247,0.124619 v 1.358348 q 0.14539,0.07892 0.3074,0.128773 0.16616,0.04985 0.32816,0.04985 z"
         style="font-style:normal;font-variant:normal;font-weight:normal;font-stretch:normal;line-height:1.5;font-family:Exo;-inkscape-font-specification:Exo;text-align:center;text-anchor:middle;fill:#e6e6e6;stroke-width:0.1038492"
         id="path184" />
      <path
         d="m 140.01369,92.331593 v -3.20271 h 0.26586 l 0.0623,0.228469 q 0.0748,-0.054 0.19108,-0.112158 0.12046,-0.06231 0.25755,-0.103849 0.14123,-0.04154 0.27831,-0.04154 0.21601,0 0.36555,0.09554 0.1537,0.09139 0.24924,0.249238 0.0955,0.157851 0.13708,0.361395 0.0415,0.203545 0.0415,0.427859 0,0.373857 -0.0872,0.631403 -0.0831,0.253392 -0.25755,0.382165 -0.17447,0.128773 -0.44863,0.128773 -0.18693,0 -0.37801,-0.05815 -0.18693,-0.06231 -0.34893,-0.153697 v 1.167265 z m 0.96372,-1.233729 q 0.15785,0 0.28247,-0.07892 0.12462,-0.07892 0.19939,-0.265854 0.0748,-0.191083 0.0748,-0.519246 0,-0.311548 -0.0789,-0.498476 -0.0789,-0.191083 -0.20354,-0.274162 -0.12462,-0.08723 -0.27417,-0.08723 -0.19108,0 -0.35308,0.06231 -0.15785,0.05816 -0.28247,0.124619 v 1.358348 q 0.14539,0.07892 0.30739,0.128773 0.16616,0.04985 0.32816,0.04985 z"
         style="font-style:normal;font-variant:normal;font-weight:normal;font-stretch:normal;line-height:1.5;font-family:Exo;-inkscape-font-specification:Exo;text-align:center;text-anchor:middle;fill:#e6e6e6;stroke-width:0.1038492"
         id="path186" />
      <path
         d="m 143.17901,91.372026 q -0.0831,0 -0.20355,-0.0042 -0.12046,-0.0042 -0.25339,-0.01246 -0.12877,-0.0083 -0.23677,-0.01662 -0.10385,-0.01246 -0.16201,-0.02492 V 91.11448 h 0.90972 q 0.13708,0 0.23678,-0.02077 0.0997,-0.02077 0.15369,-0.09139 0.0582,-0.07062 0.0582,-0.211852 v -0.0997 q 0,-0.145388 -0.0955,-0.224314 -0.0955,-0.08308 -0.3074,-0.08308 h -0.31154 q -0.19524,0 -0.34894,-0.04985 -0.14954,-0.04985 -0.23262,-0.170313 -0.0831,-0.120465 -0.0831,-0.332317 v -0.116311 q 0,-0.207699 0.0789,-0.340626 0.0831,-0.132927 0.25339,-0.19939 0.17447,-0.06646 0.44863,-0.06646 0.11631,0 0.26585,0.0083 0.1537,0.0083 0.29909,0.02492 0.14539,0.01246 0.23677,0.02908 v 0.19939 h -0.85571 q -0.21186,0 -0.32817,0.07062 -0.11215,0.07062 -0.11215,0.274162 v 0.09139 q 0,0.128773 0.054,0.195237 0.054,0.06231 0.14954,0.08308 0.0997,0.02077 0.22847,0.02077 h 0.3157 q 0.30324,0 0.4694,0.141235 0.16616,0.141235 0.16616,0.407089 v 0.153697 q 0,0.224314 -0.10385,0.348933 -0.0997,0.120465 -0.27832,0.170313 -0.17446,0.04569 -0.41124,0.04569 z"
         style="font-style:normal;font-variant:normal;font-weight:normal;font-stretch:normal;line-height:1.5;font-family:Exo;-inkscape-font-specification:Exo;text-align:center;text-anchor:middle;fill:#e6e6e6;stroke-width:0.1038492"
         id="path188" />
      <path
         d="m 146.49386,91.372026 q -0.24093,0 -0.42371,-0.04985 -0.17862,-0.04985 -0.29908,-0.174467 -0.12047,-0.124619 -0.17862,-0.344779 -0.0582,-0.224315 -0.0582,-0.569094 0,-0.348933 0.0582,-0.569094 0.0581,-0.224314 0.17862,-0.344779 0.12046,-0.124619 0.29908,-0.170313 0.18278,-0.04985 0.42371,-0.04985 0.24093,0 0.41955,0.04985 0.18278,0.04985 0.30324,0.174467 0.12047,0.120465 0.17862,0.344779 0.0623,0.220161 0.0623,0.56494 0,0.348933 -0.0623,0.573248 -0.0582,0.22016 -0.17862,0.344779 -0.11631,0.120465 -0.29909,0.170313 -0.18277,0.04985 -0.4237,0.04985 z m 0,-0.270008 q 0.1537,0 0.27001,-0.02908 0.12046,-0.02908 0.19939,-0.116311 0.0789,-0.08723 0.12046,-0.2617 0.0415,-0.174466 0.0415,-0.46109 0,-0.290778 -0.0415,-0.461091 -0.0415,-0.170312 -0.12046,-0.257546 -0.0789,-0.08723 -0.19939,-0.116311 -0.11631,-0.02908 -0.27001,-0.02908 -0.15785,0 -0.27416,0.02908 -0.11631,0.02908 -0.19524,0.116311 -0.0789,0.08723 -0.12046,0.257546 -0.0415,0.170313 -0.0415,0.461091 0,0.286624 0.0415,0.46109 0.0415,0.174467 0.12046,0.2617 0.0789,0.08723 0.19524,0.116311 0.11631,0.02908 0.27416,0.02908 z"
         style="font-style:normal;font-variant:normal;font-weight:normal;font-stretch:normal;line-height:1.5;font-family:Exo;-inkscape-font-specification:Exo;text-align:center;text-anchor:middle;fill:#e6e6e6;stroke-width:0.1038492"
         id="path190" />
      <path
         d="m 148.11806,91.347102 v -1.948211 h -0.34062 v -0.211852 l 0.34062,-0.05816 v -0.294931 q 0,-0.228469 0.054,-0.378012 0.0582,-0.153696 0.19108,-0.228468 0.13708,-0.07477 0.36555,-0.07477 0.15785,0 0.27001,0.02077 0.11215,0.01661 0.19939,0.04154 v 0.232623 q -0.0872,-0.0083 -0.18693,-0.01246 -0.0955,-0.0083 -0.18693,-0.0083 -0.1537,0 -0.23678,0.04985 -0.0789,0.04985 -0.11215,0.149543 -0.0291,0.09969 -0.0291,0.249238 v 0.253392 h 1.43312 v 0.270008 h -1.43312 v 1.948211 z m 1.59097,0 v -1.948211 h -0.34062 v -0.211852 l 0.34062,-0.05816 v -0.265854 q 0,-0.24093 0.0748,-0.398781 0.0748,-0.15785 0.24923,-0.232622 0.17447,-0.07893 0.46525,-0.07893 0.21185,0 0.39878,0.01662 0.18693,0.01246 0.34478,0.03323 0.15785,0.02077 0.28247,0.03739 v 0.224314 q -0.13708,-0.01246 -0.3074,-0.02077 -0.17031,-0.0083 -0.34477,-0.01246 -0.17447,-0.0042 -0.33232,-0.0042 -0.19939,0 -0.31155,0.04985 -0.108,0.04985 -0.14954,0.149543 -0.0374,0.09969 -0.0374,0.249238 v 0.253392 h 0.68541 v 0.270008 h -0.68541 v 1.948211 z m 2.06868,0 q -0.19108,0 -0.32401,-0.06646 -0.12877,-0.07062 -0.19524,-0.224314 -0.0623,-0.157851 -0.0623,-0.423705 v -2.346992 h 0.32816 v 2.305452 q 0,0.199391 0.0374,0.30324 0.0374,0.0997 0.10385,0.141235 0.0706,0.03739 0.17032,0.04985 l 0.22016,0.02492 v 0.236776 z"
         style="font-style:normal;font-variant:normal;font-weight:normal;font-stretch:normal;line-height:1.5;font-family:Exo;-inkscape-font-specification:Exo;text-align:center;text-anchor:middle;fill:#e6e6e6;stroke-width:0.1038492"
         id="path192" />
      <path
         d="m 152.46311,88.734256 q -0.0665,0 -0.0665,-0.06646 v -0.32401 q 0,-0.06646 0.0665,-0.06646 h 0.23263 q 0.0332,0 0.0457,0.02077 0.0166,0.01662 0.0166,0.04569 v 0.32401 q 0,0.06646 -0.0623,0.06646 z m -0.0498,2.612846 v -2.218219 h 0.32816 v 2.218219 z"
         style="font-style:normal;font-variant:normal;font-weight:normal;font-stretch:normal;line-height:1.5;font-family:Exo;-inkscape-font-specification:Exo;text-align:center;text-anchor:middle;fill:#e6e6e6;stroke-width:0.1038492"
         id="path194" />
      <path
         d="m 153.37282,91.347102 v -2.218219 h 0.25755 l 0.0706,0.245084 q 0.15785,-0.112157 0.3697,-0.195236 0.21185,-0.08723 0.44032,-0.08723 0.24509,0 0.39463,0.103849 0.14954,0.103849 0.22016,0.274162 0.0706,0.170312 0.0706,0.369703 v 1.50789 h -0.32817 v -1.470504 q 0,-0.141235 -0.0581,-0.249238 -0.054,-0.112158 -0.15785,-0.174467 -0.0997,-0.06231 -0.24924,-0.06231 -0.13708,0 -0.25755,0.02908 -0.11631,0.02492 -0.22431,0.07477 -0.10385,0.04569 -0.22016,0.112157 v 1.740512 z"
         style="font-style:normal;font-variant:normal;font-weight:normal;font-stretch:normal;line-height:1.5;font-family:Exo;-inkscape-font-specification:Exo;text-align:center;text-anchor:middle;fill:#e6e6e6;stroke-width:0.1038492"
         id="path196" />
      <path
         d="m 156.66277,91.372026 q -0.34893,0 -0.55248,-0.103849 -0.19939,-0.103849 -0.28662,-0.353087 -0.0872,-0.249238 -0.0872,-0.681251 0,-0.440321 0.0872,-0.685405 0.0914,-0.249238 0.29493,-0.348933 0.20354,-0.09969 0.54832,-0.09969 0.29493,0 0.47771,0.06646 0.18693,0.06646 0.27416,0.228468 0.0914,0.157851 0.0914,0.440321 0,0.195236 -0.0789,0.315702 -0.0748,0.116311 -0.22016,0.170312 -0.14123,0.04985 -0.33647,0.04985 h -0.81002 q 0.004,0.270008 0.0581,0.436167 0.054,0.162004 0.19524,0.236776 0.14539,0.07062 0.4237,0.07062 h 0.71449 v 0.199391 q -0.19109,0.02492 -0.37386,0.04154 -0.18278,0.01662 -0.41955,0.01662 z m -0.60233,-1.217113 h 0.78926 q 0.18693,0 0.27416,-0.06646 0.0914,-0.07062 0.0914,-0.249238 0,-0.191083 -0.0582,-0.294932 -0.054,-0.108003 -0.17447,-0.149543 -0.11631,-0.04569 -0.3157,-0.04569 -0.23262,0 -0.36555,0.07062 -0.13292,0.06646 -0.18693,0.24093 -0.054,0.174467 -0.054,0.494322 z"
         style="font-style:normal;font-variant:normal;font-weight:normal;font-stretch:normal;line-height:1.5;font-family:Exo;-inkscape-font-specification:Exo;text-align:center;text-anchor:middle;fill:#e6e6e6;stroke-width:0.1038492"
         id="path198" />
      <path
         d="m 158.17065,90.520463 -0.0415,-2.226527 h 0.32817 l -0.0498,2.226527 z m 0.0249,0.830793 q -0.0665,0 -0.0665,-0.06646 v -0.332318 q 0,-0.06646 0.0665,-0.06646 h 0.18693 q 0.0665,0 0.0665,0.06646 v 0.332318 q 0,0.03323 -0.0208,0.04985 -0.0208,0.01662 -0.0457,0.01662 z"
         style="font-style:normal;font-variant:normal;font-weight:normal;font-stretch:normal;line-height:1.5;font-family:Exo;-inkscape-font-specification:Exo;text-align:center;text-anchor:middle;fill:#e6e6e6;stroke-width:0.1038492"
         id="path200" />
    </g>
  </g>
</svg>
